<?xml version="1.0" encoding="UTF-8" standalone="no"?>
<!-- Created with Inkscape (http://www.inkscape.org/) -->

<svg
   xmlns:dc="http://purl.org/dc/elements/1.1/"
   xmlns:cc="http://creativecommons.org/ns#"
   xmlns:rdf="http://www.w3.org/1999/02/22-rdf-syntax-ns#"
   xmlns:svg="http://www.w3.org/2000/svg"
   xmlns="http://www.w3.org/2000/svg"
   xmlns:sodipodi="http://sodipodi.sourceforge.net/DTD/sodipodi-0.dtd"
   xmlns:inkscape="http://www.inkscape.org/namespaces/inkscape"
   width="236.97542"
   height="60.508522"
   id="svg3042"
   version="1.1"
   inkscape:version="0.47 r22583"
   sodipodi:docname="tineye-2.svg">
  <defs
     id="defs3044">
    <inkscape:perspective
       sodipodi:type="inkscape:persp3d"
       inkscape:vp_x="0 : 526.18109 : 1"
       inkscape:vp_y="0 : 1000 : 0"
       inkscape:vp_z="744.09448 : 526.18109 : 1"
       inkscape:persp3d-origin="372.04724 : 350.78739 : 1"
       id="perspective3050" />
    <inkscape:perspective
       id="perspective3120"
       inkscape:persp3d-origin="0.5 : 0.33333333 : 1"
       inkscape:vp_z="1 : 0.5 : 1"
       inkscape:vp_y="0 : 1000 : 0"
       inkscape:vp_x="0 : 0.5 : 1"
       sodipodi:type="inkscape:persp3d" />
    <inkscape:perspective
       id="perspective3231"
       inkscape:persp3d-origin="0.5 : 0.33333333 : 1"
       inkscape:vp_z="1 : 0.5 : 1"
       inkscape:vp_y="0 : 1000 : 0"
       inkscape:vp_x="0 : 0.5 : 1"
       sodipodi:type="inkscape:persp3d" />
  </defs>
  <sodipodi:namedview
     id="base"
     pagecolor="#ffffff"
     bordercolor="#666666"
     borderopacity="1.0"
     inkscape:pageopacity="0.0"
     inkscape:pageshadow="2"
     inkscape:zoom="1"
     inkscape:cx="361.00832"
     inkscape:cy="51.889374"
     inkscape:document-units="px"
     inkscape:current-layer="layer1"
     showgrid="false"
     inkscape:snap-nodes="true"
     inkscape:window-width="1181"
     inkscape:window-height="701"
     inkscape:window-x="27"
     inkscape:window-y="172"
     inkscape:window-maximized="0" />
  <metadata
     id="metadata3047">
    <rdf:RDF>
      <cc:Work
         rdf:about="">
        <dc:format>image/svg+xml</dc:format>
        <dc:type
           rdf:resource="http://purl.org/dc/dcmitype/StillImage" />
        <dc:title></dc:title>
      </cc:Work>
    </rdf:RDF>
  </metadata>
  <g
     inkscape:label="Layer 1"
     inkscape:groupmode="layer"
     id="layer1"
     transform="translate(106.00832,-320.36218)">
    <g
       id="g3237"
       transform="matrix(0.26468729,0,0,0.26468729,-88.272071,212.2739)">
      <path
         style="fill:#8ecee2"
         d="m 626.5,636.7327 c -8.78701,-0.88662 -8.5,-0.59153 -8.5,-8.73939 l 0,-7.33076 7.36313,0.47254 c 13.26508,0.8513 17.2586,-1.94465 23.57346,-16.50429 l 3.97279,-9.15971 -20.71142,-45.80446 -20.71142,-45.80445 -5.74327,-0.2999 -5.74327,-0.29991 0,-7.45009 0,-7.4501 27,0 27,0 0,7.5 0,7.5 -10,0 c -6.54871,0 -10,0.37608 -10,1.08969 0,0.59933 6.60323,16.60359 14.67386,35.56503 9.50767,22.33772 14.94769,33.98601 15.45167,33.08546 C 665.54222,570.57086 693,505.04457 693,504.1952 c 0,-0.45816 -4.5,-0.83302 -10,-0.83302 l -10,0 0,-7.5 0,-7.5 25.5,0 25.5,0 0,7.5 0,7.5 -5.80292,0 -5.80292,0 -22.8561,53.25 c -12.57086,29.2875 -24.57307,56.7047 -26.67159,60.92711 -4.26902,8.58964 -9.38781,14.212 -15.39686,16.91155 -4.21195,1.89221 -14.13251,2.97174 -20.96961,2.28186 z M 14.33245,606.5794 C 0.77742,601.716 -7.37652,588.89372 -7.42697,572.36218 c -0.0433,-14.19205 6.00521,-21.21239 21.18584,-24.58976 17.94889,-3.99325 29.30394,1.45887 37.11208,17.81936 8.25693,17.30084 5.7934,34.9349 -5.58357,39.96748 -6.81563,3.01487 -23.83229,3.57567 -30.95493,1.02014 z m 14.66038,-29.24384 c -1.5398,-5.71838 -2.1009,-4.5999 -0.77222,1.53933 0.59366,2.74301 1.26323,4.45824 1.48794,3.81162 0.22471,-0.64662 -0.0974,-3.05455 -0.71572,-5.35095 z M 765.5,597.73382 c -17.72081,-2.75912 -33.25526,-13.06154 -40.11928,-26.60703 -6.03696,-11.91337 -8.08814,-30.89518 -4.83156,-44.71172 4.64823,-19.72083 18.8113,-33.8614 38.58367,-38.52238 7.52431,-1.77372 23.58983,-1.9888 31.06795,-0.41592 22.02191,4.63187 35.14184,22.72683 37.43877,51.63541 l 0.6555,8.25 -44.28998,0 -44.28998,0 0.64427,6.1641 c 1.2848,12.29223 8.15961,21.90683 18.62953,26.05385 4.54972,1.80209 7.60447,2.19154 17.51111,2.23247 11.18427,0.0462 12.42669,-0.14746 18.27692,-2.84906 6.96664,-3.21716 11.40633,-7.59656 13.19477,-13.01559 l 1.18341,-3.58577 9.05838,0 9.05837,0 -0.61595,4.49382 c -1.84773,13.48067 -13.64573,24.46236 -31.1559,29.00021 -6.08765,1.57765 -24.51805,2.73115 -30,1.87761 z m 42.12538,-70.12164 c -1.7059,-12.53425 -10.23803,-21.86437 -22.55649,-24.66614 -8.52916,-1.93992 -13.00309,-1.97696 -19.81296,-0.16407 -14.49427,3.85861 -23.20402,12.62656 -24.91055,25.07701 l -0.61723,4.5032 34.27185,0 34.27185,0 -0.64647,-4.75 z M 144,588.36218 l 0,-8 12.5,0 12.5,0 0,-61.5 0,-61.5 -19.5,0 -19.5,0 0,17.5 0,17.5 -9.5,0 -9.5,0 0,-25.5 0,-25.5 69,0 69,0 0,25.5 0,25.5 -9,0 -9,0 0,-17.5 0,-17.5 -20,0 -20,0 0,61.5 0,61.5 12.5,0 12.5,0 0,8 0,8 -36,0 -36,0 0,-8 z m 111.66667,7.33333 C 255.3,595.32885 255,591.72885 255,587.69551 l 0,-7.33333 9.5,0 9.5,0 0,-38.5 0,-38.5 -9.5,0 -9.5,0 0,-7.5 0,-7.5 19.5,0 19.5,0 0,46 0,46 9,0 9,0 0,8 0,8 -27.83333,0 c -15.30834,0 -28.13334,-0.3 -28.5,-0.66667 z M 319,588.37775 l 0,-8.01557 9,0 9,0 0,-38.5 0,-38.5 -9,0 -9,0 0,-7.5 0,-7.5 19,0 19,0 0,9.17144 0,9.17145 3.03157,-4.57684 c 3.61331,-5.4551 7.97496,-8.94211 15.73297,-12.57803 5.31068,-2.48894 6.69827,-2.68688 18.73546,-2.67265 11.50603,0.0136 13.60672,0.28779 18.27943,2.38581 7.4254,3.33395 13.62698,10.51973 16.35064,18.94549 1.97166,6.09939 2.19044,9.38002 2.62777,39.40333 l 0.47706,32.75 8.88255,0 8.88255,0 0,8 0,8 -28.5,0 -28.5,0 0,-8 0,-8 9.58678,0 9.58677,0 -0.33677,-30.82327 -0.33678,-30.82327 -3.00271,-5.86877 c -4.17157,-8.15328 -9.59803,-10.99151 -20.9706,-10.96833 -9.93657,0.0202 -14.60125,1.58941 -20.27684,6.82098 C 358.21194,517.03038 357,522.55357 357,555.4114 l 0,24.95078 9.54206,0 9.54207,0 -0.29207,7.75 -0.29206,7.75 -28.25,0.26557 -28.25,0.26558 0,-8.01558 z m 139,-0.0156 0,-8 11.5,0 11.5,0 0,-61.5 0,-61.5 -11.5,0 -11.5,0 0,-8 0,-8 67,0 67,0 0,23.5 0,23.5 -9,0 -9,0 0,-15.5 0,-15.5 -36,0 -36,0 0,26.5 0,26.5 17,0 17,0 0,-11 0,-11 9.51488,0 9.51488,0 -0.26488,29.75 -0.26488,29.75 -9,0 -9,0 -0.28298,-11.27403 -0.28297,-11.27403 -16.71703,0.27403 -16.71702,0.27403 -0.26607,27.25 -0.26607,27.25 36.01607,0 36.01607,0 0,-16.5 0,-16.5 9,0 9,0 0,24.5 0,24.5 -67,0 -67,0 0,-8 z M 92.75534,547.28507 c -1.41177,-0.82238 -1.69798,-2.20775 -1.5,-7.26077 0.23008,-5.87225 -0.0171,-6.64664 -4.14762,-12.99139 -5.67148,-8.71189 -16.21196,-18.4268 -25.00725,-23.0486 -7.81564,-4.107 -7.35277,-4.36799 -8.61186,4.85578 -1.62098,11.87487 -9.15049,24.26531 -16.14937,26.57514 -4.66371,1.53917 -14.92951,0.72731 -19.28527,-1.52514 -4.36018,-2.25474 -9.1503,-1.49954 -19.16257,3.02112 -5.54824,2.5051 -9.0612,3.45097 -12.81692,3.45097 -9.75389,0 -13.597898,-3.63102 -19.084955,-18.02748 -2.162109,-5.67276 -4.34594,-10.72893 -4.852957,-11.23595 -2.325511,-2.32551 -10.772858,6.35808 -17.749144,18.24554 -3.54766,6.04515 -4.277014,8.0895 -3.797655,10.64471 0.594336,3.16808 -0.867527,7.37318 -2.563216,7.37318 -0.496694,0 -0.818362,-1.10056 -0.714817,-2.4457 0.228027,-2.96225 -1.679273,-3.48 -2.13323,-0.57908 -0.176822,1.12994 -0.739322,1.79621 -1.25,1.48059 -1.58969,-0.98248 -1.018923,-5.29176 0.949254,-7.16685 1.032768,-0.98393 2.644454,-4.45941 3.581524,-7.7233 2.165011,-7.5409 8.315235,-19.807 13.024806,-25.97687 3.445035,-4.51324 3.545134,-4.85063 1.830136,-6.16844 -0.997824,-0.76673 -3.501726,-1.9212 -5.564226,-2.56549 -4.289169,-1.33986 -4.599494,-2.50519 -1.661704,-6.23998 4.15134,-5.27757 6.175625,-5.71505 34.911704,-7.54487 16.23873,-1.03403 17.21909,-1.26136 29.72659,-6.89319 9.76848,-4.39851 16.03106,-6.30956 26.88504,-8.20409 11.44021,-1.99686 19.91148,0.31742 23.99944,6.55645 1.71073,2.61089 1.69791,2.64462 -2.44566,6.43222 C 56.87443,482.41773 55,484.84656 55,485.72098 c 0,0.87441 1.4625,2.33741 3.25,3.2511 6.93796,3.54638 18.04035,11.9364 23.26993,17.58497 5.729,6.18801 12.8081,19.31771 14.01282,25.98976 0.36592,2.02655 1.52074,4.45879 2.56628,5.40499 2.24541,2.03207 2.54493,7.63105 0.49906,9.32897 -1.15725,0.96044 -1.3754,0.59546 -1.25,-2.09133 0.11454,-2.45423 -0.31044,-3.3494 -1.72782,-3.63935 -1.65503,-0.33856 -1.79904,0.0456 -1.20469,3.21378 0.37128,1.97907 0.54216,3.58463 0.37973,3.5679 -0.16242,-0.0167 -1.08041,-0.48774 -2.03997,-1.0467 z M 1.50506,524.36218 c 0.73782,0 2.71071,-1.15213 4.38421,-2.56028 7.90547,-6.65202 2.71581,-19.43972 -7.88927,-19.43972 -6.40842,0 -12,5.26655 -12,11.30246 0,5.48113 8.27334,12.66526 12.83179,11.14244 0.73248,-0.24469 1.93545,-0.4449 2.67327,-0.4449 z M -5,521.44551 c 0,-1.22833 0.64569,-2.08333 1.57332,-2.08333 0.93124,0 1.44138,0.68037 1.25,1.66713 C -2.66323,523.53808 -5,523.88256 -5,521.44551 z m 4.60699,0.33488 c -0.85118,-2.21812 -0.78614,-2.41821 0.78602,-2.41821 1.50843,0 2.84457,2.42909 1.87142,3.40223 -1.02841,1.02842 -2.0271,0.65862 -2.65744,-0.98402 z m -9.38929,-2.57271 c 0.24642,-0.74002 1.25007,-1.50098 2.23033,-1.691 1.14002,-0.221 1.62085,0.13937 1.33427,1 -0.24642,0.74002 -1.25007,1.50098 -2.23033,1.691 -1.14002,0.221 -1.62085,-0.13937 -1.33427,-1 z M 3.49583,518.98279 C 2.35858,518.15121 2.08732,517.42625 2.75827,517.01158 4.0164,516.23401 7,517.21776 7,518.41015 7,520.00828 5.28218,520.289 3.49583,518.98279 z M -12,513.86218 c 0,-1.61396 0.91589,-1.85324 3.41821,-0.89301 2.43449,0.9342 1.87474,2.39301 -0.91821,2.39301 -1.55556,0 -2.5,-0.56667 -2.5,-1.5 z m 15,0.10699 c 0,-1.31026 2.0303,-2.60699 4.08179,-2.60699 1.5528,0 1.01521,2.7488 -0.66358,3.39301 C 3.9539,515.70084 3,515.48149 3,513.96917 z m -12.96365,-4.06319 c -0.66469,-0.8009 -0.91748,-1.92712 -0.56175,-2.5027 0.88945,-1.43916 4.5254,0.56472 4.5254,2.49408 0,1.88554 -2.40161,1.89076 -3.96365,0.009 z m 10.42471,0.39319 c -0.36134,-0.58466 0.14147,-1.94529 1.11735,-3.02363 2.23806,-2.47303 4.07636,-1.00532 2.47905,1.97928 -1.23454,2.30675 -2.57553,2.69616 -3.5964,1.04435 z M -3.8,509.16218 c -0.66,-0.66 -1.2,-2.235 -1.2,-3.5 0,-3.16599 2.79772,-2.95412 3.60773,0.27322 0.76741,3.05758 -0.66169,4.97282 -2.40773,3.22678 z m -31.683044,-31.39354 c -5.994428,-1.9803 -8.859136,-3.56457 -11.5,-6.35986 -9.406731,-9.95678 -10.302389,-11.77623 -7.955645,-16.16116 1.656979,-3.09609 -0.65434,-20.94276 -2.969251,-22.92684 -3.548,-3.04096 -4.398459,-5.84203 -2.604865,-8.5794 0.896137,-1.36768 2.279126,-2.73603 3.073308,-3.04079 2.572986,-0.98735 6.478874,0.65391 7.644523,3.21223 0.956287,2.09882 0.791936,2.96219 -1.034009,5.43192 -2.091894,2.82944 -2.835468,8.12233 -1.595148,11.35456 0.435571,1.13508 1.454369,0.52829 4.181786,-2.49063 1.983255,-2.19523 5.211614,-4.81494 7.174131,-5.82159 1.962518,-1.00664 4.693214,-3.05705 6.068214,-4.55646 3.820183,-4.16583 8.541319,-5.65796 19.7095,-6.22927 8.56192,-0.43798 10.63243,-0.24515 12.83023,1.1949 1.4414,0.94445 5.16937,2.38101 8.28438,3.19237 3.11502,0.81135 7.64735,2.58389 10.07185,3.93897 2.4245,1.35508 4.51937,2.34472 4.65526,2.19919 0.67456,-0.72238 -1.64813,-11.2969 -2.54718,-11.59659 -4.30157,-1.43385 -5.41509,-8.06627 -1.78153,-10.61131 2.99128,-2.09517 5.37488,-1.95931 7.77749,0.4433 2.41343,2.41343 2.59598,6.26049 0.38417,8.09613 -2.48945,2.06606 -1.49117,15.54049 1.45822,19.68253 6.26387,8.7968 7.83838,17.81487 3.96919,22.73375 -1.3301,1.69094 -6.72298,4.92478 -13.75,8.24517 C -2.95157,478.10381 -7.34829,479.50587 -18,479.9816 c -8.280706,0.36984 -10.524598,0.0858 -17.483044,-2.21296 z m 8.654303,-11.06145 C -23.36151,463.5694 -24.9345,454.37378 -29.647621,450.2281 -34.926151,445.58509 -40,448.13359 -40,455.42792 c 0,9.40634 7.830823,16.1123 13.171259,11.27927 z M -36.8,463.16218 c -2.848457,-2.84846 0.264317,-8.31939 3.3,-5.8 0.825,0.68469 1.5,1.99979 1.5,2.92244 0,1.63481 -1.797218,4.07756 -3,4.07756 -0.33,0 -1.14,-0.54 -1.8,-1.2 z m 34.0107,1.45 c 6.5601,-7.54938 -2.93177,-24.9389 -10.79895,-19.78414 -4.96692,3.25446 -3.99702,14.18099 1.68304,18.96044 3.55836,2.99417 6.96257,3.30177 9.11591,0.8237 z m -10.17552,-5.18426 c -1.33554,-2.49548 -1.31969,-2.63838 0.49376,-4.45182 2.88827,-2.88828 6.44787,0.69238 4.43229,4.45852 -1.32253,2.47117 -3.60159,2.46807 -4.92605,-0.007 z M 271,452.86218 l 0,-11.5 11.5,0 11.5,0 0,11.5 0,11.5 -11.5,0 -11.5,0 0,-11.5 z"
         id="path3251" />
      <path
         style="fill:#79c3dd"
         d="m 627,636.7197 c -9.40611,-0.80466 -9.12264,-0.52659 -8.79321,-8.6256 l 0.29321,-7.20828 7.5,0.31248 c 12.7833,0.53261 16.59614,-2.16217 22.94656,-16.21783 l 4.16359,-9.21547 -20.3174,-44.95141 c -11.17457,-24.72327 -20.67591,-45.51391 -21.11409,-46.20141 -0.47752,-0.74923 -2.97646,-1.25 -6.23768,-1.25 l -5.44098,0 0,-7.5 0,-7.5 27,0 27,0 0,7.46617 0,7.46617 -10.42589,0.28383 -10.42588,0.28383 15.11941,35.30445 c 13.72879,32.05729 15.23006,35.09249 16.32239,33 C 666.66237,568.1968 693,505.27543 693,504.29438 c 0,-0.51412 -4.48488,-0.9322 -10,-0.9322 l -10,0 0,-7.5 0,-7.5 25.5,0 25.5,0 0,7.5 0,7.5 -5.85897,0 -5.85898,0 -23.25901,54.25 c -12.79245,29.8375 -24.8269,57.26893 -26.74321,60.95874 -7.46305,14.3699 -17.72774,19.6503 -35.27983,18.14878 z M 15.80321,606.96279 c -12.3224,-3.31728 -20.11183,-13.14423 -22.82836,-28.79968 -3.06242,-17.64881 5.03386,-27.99584 24.222,-30.9557 9.49722,-1.465 16.73799,-0.12385 22.71764,4.20779 12.6777,9.18368 19.55096,33.2593 13.20341,46.24882 -1.29058,2.64101 -3.47462,5.54101 -4.85344,6.44445 -5.84788,3.83167 -23.17217,5.355 -32.46125,2.85432 z M 29,577.36218 c -0.67396,-2.80937 -1.45038,-4.88295 -1.72538,-4.60795 -0.275,0.275 0.0514,2.79858 0.72538,5.60795 0.67396,2.80937 1.45038,4.88295 1.72538,4.60795 0.275,-0.275 -0.0514,-2.79858 -0.72538,-5.60795 z m 733.19885,19.56506 c -16.2723,-3.10148 -30.38628,-13.16925 -36.94966,-26.35692 -9.08977,-18.2639 -8.1236,-45.11509 2.18442,-60.70814 10.31683,-15.60638 26.49714,-23.5 48.17018,-23.5 31.78966,0 49.13603,17.59336 52.00947,52.75 l 0.67429,8.25 -44.28623,0 -44.28623,0 0.62761,6.25 c 0.90973,9.05935 5.76143,18.13044 11.97568,22.39056 6.48512,4.44581 10.3645,5.50228 22.34539,6.0853 8.60127,0.41856 11.15496,0.16475 16.61134,-1.65102 8.04966,-2.67876 14.0189,-7.65937 16.28208,-13.58543 l 1.71453,-4.48941 9.00006,0 9.00007,0 -0.63136,4.60629 c -1.34105,9.784 -9.40823,19.77503 -20.0165,24.79003 -11.90338,5.62724 -30.60404,7.80301 -44.42514,5.16874 z M 808,529.39969 c 0,-9.99309 -9.06575,-22.16275 -19.11772,-25.66321 -7.71932,-2.68814 -21.4762,-2.4703 -28.96163,0.45861 -10.60307,4.14878 -18.15158,13.27694 -19.57655,23.67327 l -0.61595,4.49382 34.13593,0 34.13592,0 0,-2.96249 z M 144.66667,595.69551 C 144.3,595.32885 144,591.72885 144,587.69551 l 0,-7.33333 12.5,0 12.5,0 0,-61.5 0,-61.5 -19.5,0 -19.5,0 0,17.5 0,17.5 -9.51717,0 -9.51717,0 0.26717,-25.25 0.26717,-25.25 68.5,0 68.5,0 0.26717,25.25 0.26717,25.25 -9.01717,0 -9.01717,0 0,-17.5 0,-17.5 -20,0 -20,0 0,61.5 0,61.5 12.5,0 12.5,0 0,8 0,8 -35.33333,0 c -19.43334,0 -35.63334,-0.3 -36,-0.66667 z m 110.75047,-0.68866 c -0.28605,-0.74543 -0.38442,-4.23293 -0.21861,-7.75 l 0.30147,-6.39467 9.25,-0.28753 9.25,-0.28752 0,-38.46248 0,-38.46247 -9.54381,0 -9.54381,0 0.29381,-7.25 0.29381,-7.25 19.25,-0.27159 19.25,-0.2716 0,46.0216 0,46.02159 9,0 9,0 0,8 0,8 -28.03138,0 c -22.66444,0 -28.13097,-0.25949 -28.55148,-1.35533 z M 319,588.37775 l 0,-8.01557 9,0 9,0 0,-38.5 0,-38.5 -9,0 -9,0 0,-7.5 0,-7.5 19,0 19,0 0.0228,9.75 c 0.0225,9.65232 0.0389,9.7173 1.63172,6.48593 2.59078,-5.25592 9.36035,-11.31873 16.26043,-14.56281 5.47482,-2.57399 7.91534,-3.08271 16.65328,-3.47133 14.52447,-0.64597 22.6006,1.83657 29.97953,9.2155 4.26774,4.26775 5.67714,6.57092 7.36499,12.03555 1.93711,6.27165 2.08728,9.1244 2.08728,39.6525 l -3e-5,32.89466 9.5,0 9.5,0 0,8.01557 0,8.01558 -28.25,-0.26558 -28.25,-0.26557 -0.29206,-7.75 -0.29207,-7.75 9.61834,0 9.61835,0 -0.32628,-30.75 -0.32628,-30.75 -2.64802,-5.64808 c -2.10791,-4.49608 -3.63764,-6.22977 -7.5,-8.5 -4.37977,-2.57436 -5.72789,-2.84902 -13.85198,-2.82211 -14.06999,0.0466 -21.92926,4.76614 -27.41699,16.4641 -2.55725,5.45119 -2.58619,5.7874 -2.90231,33.71765 l -0.31929,28.21155 9.31929,0.28845 9.3193,0.28844 0,7.5 0,7.5 -28.25,0.26557 -28.25,0.26558 0,-8.01558 z m 139,-0.0156 0,-8 11.5,0 11.5,0 0,-61.5 0,-61.5 -11.5,0 -11.5,0 0,-8 0,-8 67,0 67,0 0,23.5 0,23.5 -9,0 -9,0 0,-15.5 0,-15.5 -36,0 -36,0 0,26.5 0,26.5 17,0 17,0 0,-11.03753 0,-11.03752 9.25,0.28752 9.25,0.28753 0,29.5 0,29.5 -9,0 -9,0 -0.28298,-11.27403 -0.28297,-11.27403 -16.71703,0.27403 -16.71702,0.27403 -0.26607,27.25 -0.26607,27.25 36.01607,0 36.01607,0 0,-16.5 0,-16.5 9,0 9,0 0,24.5 0,24.5 -67,0 -67,0 0,-8 z M 92.57143,546.79075 c -1.77244,-1.77243 -2.09642,-6.50358 -0.55117,-8.04883 0.69367,-0.69367 -0.0255,-3.07839 -2.24663,-7.45 -4.57505,-9.00441 -17.9507,-22.27677 -27.41986,-27.20812 -3.93043,-2.04689 -7.35598,-3.72162 -7.61232,-3.72162 -0.25635,0 -0.7553,2.46074 -1.10878,5.46832 -0.7727,6.57448 -4.53562,17.30689 -7.67377,21.88671 -4.07783,5.95121 -8.27026,8.05601 -15.8105,7.93765 -3.70914,-0.0582 -8.54251,-0.86322 -10.93273,-1.82084 -5.48298,-2.1967 -10.2384,-1.4767 -20.32427,3.07719 -8.78418,3.96617 -14.2512,4.37902 -20.48686,1.54709 -4.915769,-2.2325 -7.221226,-5.72133 -11.385284,-17.22927 -4.641283,-12.82681 -4.64442,-12.82917 -10.354705,-7.80278 -8.197637,7.21585 -17.315793,22.20504 -16.203517,26.6367 0.763402,3.04163 -0.07707,5.93791 -1.929406,6.64872 -0.974882,0.3741 -1.338187,-0.18148 -1.211933,-1.85332 0.220646,-2.92175 -1.692648,-3.38726 -2.141189,-0.52095 -0.176822,1.12994 -0.739322,1.79621 -1.25,1.48059 -1.599482,-0.98853 -1.013647,-5.29785 0.974306,-7.16685 1.046547,-0.98393 2.436434,-3.81396 3.088638,-6.28896 1.841987,-6.99002 8.62907,-20.81565 13.172964,-26.83399 l 4.113252,-5.44796 -2.388833,-1.82143 c -1.313858,-1.00179 -3.626333,-2.0991 -5.138833,-2.43848 -4.443988,-0.99715 -3.297057,-5.12537 2.465992,-8.87601 3.306661,-2.152 11.522577,-3.31867 31.375668,-4.45539 l 15.09165,-0.8641 12.90835,-5.53155 c 16.38014,-7.01931 18.6495,-7.62461 31.43703,-8.38515 11.7858,-0.70096 14.67517,0.13654 19.25701,5.58175 l 2.52393,2.99952 -4.40481,4.40482 C 55.98217,483.11686 54,485.60065 54,486.21376 c 0,0.6131 2.3625,2.30108 5.25,3.75106 17.66621,8.87125 29.84695,22.4099 34.95561,38.85247 1.20386,3.87469 3.03227,8.00815 4.06313,9.18547 1.22481,1.39882 1.76289,3.278 1.55278,5.42299 -0.39186,4.00055 -2.41858,5.05372 -2.36199,1.22738 0.0282,-1.90616 -0.53502,-2.85103 -1.85688,-3.11519 -1.66216,-0.33216 -1.82489,0.0673 -1.31287,3.22254 0.65838,4.05713 0.498,4.24662 -1.71835,2.03027 z M 4,524.20717 c 6.57083,-2.8506 9.39298,-6.06293 13.57808,-15.45534 2.05606,-4.61431 4.11711,-8.38965 4.58011,-8.38965 0.46299,0 0.84621,-0.5625 0.85158,-1.25 0.0192,-2.45891 4.78646,-11.44833 8.03086,-15.14349 1.81703,-2.06949 5.58872,-5.09861 8.38153,-6.73139 2.79281,-1.63278 4.40284,-2.87666 3.57784,-2.76418 -0.825,0.11247 -2.27853,-0.13618 -3.23007,-0.55256 -2.53095,-1.10752 -11.55869,2.042 -16.76993,5.85055 -2.92686,2.13904 -6.15891,6.05088 -9.24536,11.18991 -7.09873,11.81959 -7.90117,12.59464 -11.67694,11.2784 -3.83614,-1.33728 -9.15691,-0.44344 -12.24485,2.05703 -2.05404,1.66326 -2.60689,1.71682 -4.9917,0.48359 -1.475,-0.76276 -4.40517,-3.4972 -6.51149,-6.07655 -5.509621,-6.74697 -14.518508,-12.34131 -19.873912,-12.34131 -8.839979,0 -11.294882,6.50894 -3.097285,8.21215 5.800818,1.20523 11.127053,4.36886 15.027942,8.92617 4.50654,5.26488 3.815633,6.36437 -1.126904,1.79333 -2.190933,-2.02626 -1.632482,-1.16687 1.363613,2.09844 2.790784,3.04155 6.213426,7.31655 7.605866,9.5 3.61767,5.67275 6.76441,8.27547 11.30414,9.34985 4.72032,1.11712 8.39145,0.60073 14.46688,-2.03495 z m -9,-2.76166 c 0,-1.22833 0.64569,-2.08333 1.57332,-2.08333 0.93124,0 1.44138,0.68037 1.25,1.66713 C -2.66323,523.53808 -5,523.88256 -5,521.44551 z m 4.60699,0.33488 c -0.85118,-2.21812 -0.78614,-2.41821 0.78602,-2.41821 1.50843,0 2.84457,2.42909 1.87142,3.40223 -1.02841,1.02842 -2.0271,0.65862 -2.65744,-0.98402 z m -9.38929,-2.57271 c 0.24642,-0.74002 1.25007,-1.50098 2.23033,-1.691 1.14002,-0.221 1.62085,0.13937 1.33427,1 -0.24642,0.74002 -1.25007,1.50098 -2.23033,1.691 -1.14002,0.221 -1.62085,-0.13937 -1.33427,-1 z M 3.49583,518.98279 C 2.35858,518.15121 2.08732,517.42625 2.75827,517.01158 4.0164,516.23401 7,517.21776 7,518.41015 7,520.00828 5.28218,520.289 3.49583,518.98279 z M -12,513.86218 c 0,-1.61396 0.91589,-1.85324 3.41821,-0.89301 2.43449,0.9342 1.87474,2.39301 -0.91821,2.39301 -1.55556,0 -2.5,-0.56667 -2.5,-1.5 z m 15,0.10699 c 0,-1.31026 2.0303,-2.60699 4.08179,-2.60699 1.5528,0 1.01521,2.7488 -0.66358,3.39301 C 3.9539,515.70084 3,515.48149 3,513.96917 z m -12.96365,-4.06319 c -0.66469,-0.8009 -0.92393,-1.91669 -0.57608,-2.47952 C -9.73312,506.12135 -6,508.3221 -6,510.10273 c 0,1.71478 -2.47936,1.59171 -3.96365,-0.19675 z m 10.42471,0.39319 c -0.36134,-0.58466 0.14147,-1.94529 1.11735,-3.02363 2.23806,-2.47303 4.07636,-1.00532 2.47905,1.97928 -1.23454,2.30675 -2.57553,2.69616 -3.5964,1.04435 z M -3.8,509.16218 c -1.45598,-1.45598 -1.57151,-4.45236 -0.20425,-5.29737 1.40445,-0.868 3.62019,4.28143 2.37712,5.5245 -0.63049,0.63049 -1.39518,0.55056 -2.17287,-0.22713 z M -37,500.89736 c 0,-0.25565 -1.0125,-0.95547 -2.25,-1.55516 -2.160626,-1.04704 -2.172895,-1.02858 -0.30887,0.46481 2.040262,1.63459 2.55887,1.85557 2.55887,1.09035 z m 10.5,-21.1486 c -8.809997,-1.83547 -17.170552,-5.17543 -19.923004,-7.95906 -9.439735,-9.54665 -10.816399,-12.24316 -8.479675,-16.60937 1.715999,-3.20637 -0.572326,-20.85604 -2.9638,-22.85955 -3.574801,-2.99488 -4.448819,-5.82845 -2.646326,-8.5794 0.896137,-1.36768 2.279126,-2.73603 3.073308,-3.04079 2.572986,-0.98735 6.478874,0.65391 7.644523,3.21223 0.956287,2.09882 0.791936,2.96219 -1.034009,5.43192 -2.14832,2.90576 -2.896685,8.9628 -1.543174,12.49 0.508441,1.32497 0.977217,1.06163 2.464929,-1.38471 1.010397,-1.66147 4.440367,-4.72342 7.622157,-6.80435 3.181789,-2.08092 6.648126,-4.85053 7.702971,-6.15468 2.991947,-3.69907 7.951765,-5.20525 19.24713,-5.8449 9.6192,-0.54473 10.65505,-0.42339 13.34145,1.56275 1.60189,1.18433 3.53531,2.15333 4.29648,2.15333 2.61842,0 12.7789,3.9221 15.87891,6.1295 l 3.10452,2.21061 -0.6774,-3.92005 c -1.36818,-7.91766 -1.78557,-9.42006 -2.61702,-9.42006 -1.81559,0 -3.99197,-3.27916 -3.99197,-6.01472 0,-3.06208 3.03906,-5.98528 6.22251,-5.98528 2.45557,0 5.77749,3.54832 5.77749,6.17126 0,1.19419 -0.73409,2.98242 -1.63131,3.97383 -2.34544,2.59169 -1.97139,13.13858 0.64146,18.08665 1.09442,2.07254 2.98021,5.65584 4.19065,7.96289 2.64025,5.03221 3.05791,13.56538 0.7992,16.32831 -1.92432,2.35389 -28.07953,14.88745 -35.12718,16.83292 -5.66576,1.56401 -17.99167,2.73514 -21.37282,2.03072 z m -0.385652,-12.50093 c 1.785547,-1.78555 2.042772,-2.97748 1.654064,-7.66476 -0.400229,-4.82623 -0.93512,-5.98556 -4.099662,-8.88565 -4.171853,-3.82322 -5.55212,-4.06002 -8.718778,-1.49581 -4.519764,3.65988 -2.177813,14.69066 3.922832,18.47686 3.485113,2.16293 4.721497,2.08941 7.241544,-0.43064 z M -36.8,463.16218 c -2.848457,-2.84846 0.264317,-8.31939 3.3,-5.8 0.825,0.68469 1.5,1.99979 1.5,2.92244 0,1.63481 -1.797218,4.07756 -3,4.07756 -0.33,0 -1.14,-0.54 -1.8,-1.2 z m 34.39501,1.09357 c 4.35221,-4.81244 0.91409,-17.19741 -5.51313,-19.85965 -7.01408,-2.90533 -11.44735,5.36895 -7.69208,14.35658 2.97822,7.12788 9.33866,9.7785 13.20521,5.50307 z m -10.47503,-4.66939 c -1.22481,-2.28857 0.35594,-5.22418 2.81308,-5.22418 2.1472,0 3.20447,3.00286 1.88649,5.35797 -1.20722,2.15717 -3.50855,2.09166 -4.69957,-0.13379 z m 284.09727,-6.47418 0.28275,-11.25 11,0 11,0 0.28275,11.25 0.28275,11.25 -11.5655,0 -11.5655,0 0.28275,-11.25 z"
         id="path3249" />
      <path
         style="fill:#6db4d1"
         d="m 627,636.7197 c -9.40611,-0.80466 -9.12264,-0.52659 -8.79321,-8.6256 l 0.29321,-7.20828 7.5,0.31248 c 12.7833,0.53261 16.59614,-2.16217 22.94656,-16.21783 l 4.16359,-9.21547 -20.3174,-44.95141 c -11.17457,-24.72327 -20.67591,-45.51391 -21.11409,-46.20141 -0.47752,-0.74923 -2.97646,-1.25 -6.23768,-1.25 l -5.44098,0 0,-7.5 0,-7.5 27,0 27,0 0,7.46617 0,7.46617 -10.42589,0.28383 -10.42588,0.28383 15.11941,35.30445 c 13.72879,32.05729 15.23006,35.09249 16.32239,33 C 666.66237,568.1968 693,505.27543 693,504.29438 c 0,-0.51412 -4.48488,-0.9322 -10,-0.9322 l -10,0 0,-7.5 0,-7.5 25.5,0 25.5,0 0,7.5 0,7.5 -5.85897,0 -5.85898,0 -23.25901,54.25 c -12.79245,29.8375 -24.8269,57.26893 -26.74321,60.95874 -7.46305,14.3699 -17.72774,19.6503 -35.27983,18.14878 z M 15.80321,606.96279 c -12.3224,-3.31728 -20.11183,-13.14423 -22.82836,-28.79968 -3.06242,-17.64881 5.03386,-27.99584 24.222,-30.9557 9.49722,-1.465 16.73799,-0.12385 22.71764,4.20779 12.6777,9.18368 19.55096,33.2593 13.20341,46.24882 -1.29058,2.64101 -3.47462,5.54101 -4.85344,6.44445 -5.84788,3.83167 -23.17217,5.355 -32.46125,2.85432 z M 29,577.36218 c -0.67396,-2.80937 -1.45038,-4.88295 -1.72538,-4.60795 -0.275,0.275 0.0514,2.79858 0.72538,5.60795 0.67396,2.80937 1.45038,4.88295 1.72538,4.60795 0.275,-0.275 -0.0514,-2.79858 -0.72538,-5.60795 z m 733.19885,19.56506 c -16.2723,-3.10148 -30.38628,-13.16925 -36.94966,-26.35692 -9.08977,-18.2639 -8.1236,-45.11509 2.18442,-60.70814 10.31683,-15.60638 26.49714,-23.5 48.17018,-23.5 31.78966,0 49.13603,17.59336 52.00947,52.75 l 0.67429,8.25 -44.28623,0 -44.28623,0 0.62761,6.25 c 0.90973,9.05935 5.76143,18.13044 11.97568,22.39056 6.48512,4.44581 10.3645,5.50228 22.34539,6.0853 8.60127,0.41856 11.15496,0.16475 16.61134,-1.65102 8.04966,-2.67876 14.0189,-7.65937 16.28208,-13.58543 l 1.71453,-4.48941 9.00006,0 9.00007,0 -0.63136,4.60629 c -1.34105,9.784 -9.40823,19.77503 -20.0165,24.79003 -11.90338,5.62724 -30.60404,7.80301 -44.42514,5.16874 z M 808,529.39969 c 0,-9.99309 -9.06575,-22.16275 -19.11772,-25.66321 -7.71932,-2.68814 -21.4762,-2.4703 -28.96163,0.45861 -10.60307,4.14878 -18.15158,13.27694 -19.57655,23.67327 l -0.61595,4.49382 34.13593,0 34.13592,0 0,-2.96249 z M 144.66667,595.69551 C 144.3,595.32885 144,591.72885 144,587.69551 l 0,-7.33333 12.5,0 12.5,0 0,-61.5 0,-61.5 -19.5,0 -19.5,0 0,17.5 0,17.5 -9.51717,0 -9.51717,0 0.26717,-25.25 0.26717,-25.25 68.5,0 68.5,0 0.26717,25.25 0.26717,25.25 -9.01717,0 -9.01717,0 0,-17.5 0,-17.5 -20,0 -20,0 0,61.5 0,61.5 12.5,0 12.5,0 0,8 0,8 -35.33333,0 c -19.43334,0 -35.63334,-0.3 -36,-0.66667 z m 110.75047,-0.68866 c -0.28605,-0.74543 -0.38442,-4.23293 -0.21861,-7.75 l 0.30147,-6.39467 9.25,-0.28753 9.25,-0.28752 0,-38.46248 0,-38.46247 -9.54381,0 -9.54381,0 0.29381,-7.25 0.29381,-7.25 19.25,-0.27159 19.25,-0.2716 0,46.0216 0,46.02159 9,0 9,0 0,8 0,8 -28.03138,0 c -22.66444,0 -28.13097,-0.25949 -28.55148,-1.35533 z M 319,588.37775 l 0,-8.01557 9,0 9,0 0,-38.5 0,-38.5 -9,0 -9,0 0,-7.5 0,-7.5 19,0 19,0 0.0228,9.75 c 0.0225,9.65232 0.0389,9.7173 1.63172,6.48593 2.59078,-5.25592 9.36035,-11.31873 16.26043,-14.56281 5.47482,-2.57399 7.91534,-3.08271 16.65328,-3.47133 14.52447,-0.64597 22.6006,1.83657 29.97953,9.2155 4.26774,4.26775 5.67714,6.57092 7.36499,12.03555 1.93711,6.27165 2.08728,9.1244 2.08728,39.6525 l -3e-5,32.89466 9.5,0 9.5,0 0,8.01557 0,8.01558 -28.25,-0.26558 -28.25,-0.26557 -0.29206,-7.75 -0.29207,-7.75 9.61834,0 9.61835,0 -0.32628,-30.75 -0.32628,-30.75 -2.64802,-5.64808 c -2.10791,-4.49608 -3.63764,-6.22977 -7.5,-8.5 -4.37977,-2.57436 -5.72789,-2.84902 -13.85198,-2.82211 -14.06999,0.0466 -21.92926,4.76614 -27.41699,16.4641 -2.55725,5.45119 -2.58619,5.7874 -2.90231,33.71765 l -0.31929,28.21155 9.31929,0.28845 9.3193,0.28844 0,7.5 0,7.5 -28.25,0.26557 -28.25,0.26558 0,-8.01558 z m 139,-0.0156 0,-8 11.5,0 11.5,0 0,-61.5 0,-61.5 -11.5,0 -11.5,0 0,-8 0,-8 67,0 67,0 0,23.5 0,23.5 -9,0 -9,0 0,-15.5 0,-15.5 -36,0 -36,0 0,26.5 0,26.5 17,0 17,0 0,-11.03753 0,-11.03752 9.25,0.28752 9.25,0.28753 0,29.5 0,29.5 -9,0 -9,0 -0.28298,-11.27403 -0.28297,-11.27403 -16.71703,0.27403 -16.71702,0.27403 -0.26607,27.25 -0.26607,27.25 36.01607,0 36.01607,0 0,-16.5 0,-16.5 9,0 9,0 0,24.5 0,24.5 -67,0 -67,0 0,-8 z M 92.57143,546.79075 c -1.77244,-1.77243 -2.09642,-6.50358 -0.55117,-8.04883 0.69367,-0.69367 -0.0255,-3.07839 -2.24663,-7.45 -4.6185,-9.08993 -17.94496,-22.27352 -27.59714,-27.30128 -4.02793,-2.09813 -7.42962,-3.66035 -7.55932,-3.47162 -0.12969,0.18874 -0.73242,3.38756 -1.3394,7.10848 -0.60698,3.72093 -2.5211,9.79593 -4.2536,13.5 -5.21027,11.13952 -9.28313,14.23468 -18.73111,14.23468 -7.36549,0 -11.56656,-1.21091 -15.4042,-4.44006 -1.67327,-1.40797 -4.02028,-2.51936 -5.21559,-2.46975 -1.61073,0.0668 -1.34477,0.32979 1.0275,1.01583 4.76256,1.37731 4.77981,2.56152 0.0483,3.31811 -2.31801,0.37067 -7.65397,2.22687 -11.85769,4.1249 -4.20372,1.89804 -9.16148,3.43336 -11.01726,3.41183 l -3.37414,-0.0391 3.02107,-1.31633 c 1.66159,-0.72398 4.31822,-3.06887 5.90361,-5.21086 l 2.88254,-3.89453 -4.19073,4.25 c -2.30491,2.3375 -4.64196,4.25 -5.19345,4.25 -0.5515,0 -2.72294,-0.87759 -4.82544,-1.95021 -5.5634,-2.83823 -12.712438,-11.31959 -16.674292,-19.78177 l -3.455724,-7.38113 -2.733792,1.96958 c -8.686653,6.25835 -20.056748,23.72848 -18.772758,28.8443 0.763402,3.04163 -0.07707,5.93791 -1.929406,6.64872 -0.974882,0.3741 -1.338187,-0.18148 -1.211933,-1.85332 0.220646,-2.92175 -1.692648,-3.38726 -2.141189,-0.52095 -0.176822,1.12994 -0.739322,1.79621 -1.25,1.48059 -1.599482,-0.98853 -1.013647,-5.29785 0.974306,-7.16685 1.046547,-0.98393 2.436434,-3.81396 3.088638,-6.28896 1.836756,-6.97016 8.624238,-20.80925 13.13863,-26.78851 2.363128,-3.12994 3.706983,-5.77443 3.194723,-6.28669 -0.486307,-0.4863 -2.670831,-1.7754 -4.854499,-2.86465 l -3.970284,-1.9805 4.506602,-0.0398 c 8.195781,-0.0725 16.796755,3.9587 20.497662,9.607 1.475209,2.25146 1.26576,2.19829 -2.70256,-0.68606 -4.46219,-3.2433 -10.795678,-6.30015 -11.530605,-5.56522 -0.232001,0.232 0.484378,0.70943 1.591953,1.06096 3.400328,1.07923 8.072054,7.28545 8.770096,11.65077 0.439259,2.74697 0.920672,3.62568 1.492333,2.72391 0.553958,-0.87385 0.849154,-0.92975 0.859206,-0.16272 0.02053,1.5665 6.516793,8.72223 10.947673,12.05903 1.9622,1.47769 2.95004,1.91851 2.1952,0.97959 -1.77673,-2.20997 -1.55355,-2.16852 4.29192,0.79708 6.33065,3.21175 12.45899,3.22639 21.28503,0.0508 5.18741,-1.86639 7.80121,-3.54576 11.04549,-7.09674 2.3375,-2.55848 4.25,-4.08325 4.25,-3.38837 0,0.69488 0.2718,0.99162 0.60399,0.65942 0.33219,-0.33219 1.01481,-4.27601 1.51693,-8.76404 0.94998,-8.49109 2.3061,-12.43745 3.92925,-11.43429 C 29.57258,497.21605 30,496.42878 30,495.1437 c 0,-1.28508 0.75279,-3.41127 1.67288,-4.72488 0.92008,-1.3136 1.17142,-2.07844 0.55852,-1.69965 -0.61289,0.37878 -2.7643,3.40481 -4.7809,6.7245 -2.0166,3.31968 -3.90791,5.79444 -4.2029,5.49945 -0.79275,-0.79276 2.71148,-9.51329 5.56746,-13.85501 2.84398,-4.32349 10.10201,-9.89421 15.08416,-11.57747 5.20018,-1.75693 11.52999,-1.43124 14.19977,0.73061 l 2.32055,1.87907 -3.20977,3.65573 C 55.4444,483.7867 54,485.85853 54,486.38013 c 0,0.5216 2.3625,2.13471 5.25,3.58469 17.66621,8.87125 29.84695,22.4099 34.95561,38.85247 1.20386,3.87469 3.03227,8.00815 4.06313,9.18547 1.22481,1.39882 1.76289,3.278 1.55278,5.42299 -0.39186,4.00055 -2.41858,5.05372 -2.36199,1.22738 0.0282,-1.90616 -0.53502,-2.85103 -1.85688,-3.11519 -1.66216,-0.33216 -1.82489,0.0673 -1.31287,3.22254 0.65838,4.05713 0.498,4.24662 -1.71835,2.03027 z M -5,521.44551 c 0,-1.22833 0.64569,-2.08333 1.57332,-2.08333 0.93124,0 1.44138,0.68037 1.25,1.66713 C -2.66323,523.53808 -5,523.88256 -5,521.44551 z m 4.60699,0.33488 c -0.85118,-2.21812 -0.78614,-2.41821 0.78602,-2.41821 1.50843,0 2.84457,2.42909 1.87142,3.40223 -1.02841,1.02842 -2.0271,0.65862 -2.65744,-0.98402 z m -9.38929,-2.57271 c 0.24642,-0.74002 1.25007,-1.50098 2.23033,-1.691 1.14002,-0.221 1.62085,0.13937 1.33427,1 -0.24642,0.74002 -1.25007,1.50098 -2.23033,1.691 -1.14002,0.221 -1.62085,-0.13937 -1.33427,-1 z M 3.49583,518.98279 C 2.35858,518.15121 2.08732,517.42625 2.75827,517.01158 4.0164,516.23401 7,517.21776 7,518.41015 7,520.00828 5.28218,520.289 3.49583,518.98279 z M -12,513.86218 c 0,-1.61396 0.91589,-1.85324 3.41821,-0.89301 2.43449,0.9342 1.87474,2.39301 -0.91821,2.39301 -1.55556,0 -2.5,-0.56667 -2.5,-1.5 z m 15,0.10699 c 0,-1.31026 2.0303,-2.60699 4.08179,-2.60699 1.5528,0 1.01521,2.7488 -0.66358,3.39301 C 3.9539,515.70084 3,515.48149 3,513.96917 z m -12.96365,-4.06319 c -0.66469,-0.8009 -0.92393,-1.91669 -0.57608,-2.47952 C -9.73312,506.12135 -6,508.3221 -6,510.10273 c 0,1.71478 -2.47936,1.59171 -3.96365,-0.19675 z m 10.42471,0.39319 c -0.36134,-0.58466 0.14147,-1.94529 1.11735,-3.02363 2.23806,-2.47303 4.07636,-1.00532 2.47905,1.97928 -1.23454,2.30675 -2.57553,2.69616 -3.5964,1.04435 z M -3.8,509.16218 c -1.45598,-1.45598 -1.57151,-4.45236 -0.20425,-5.29737 1.40445,-0.868 3.62019,4.28143 2.37712,5.5245 -0.63049,0.63049 -1.39518,0.55056 -2.17287,-0.22713 z m -9.07405,-6.36653 c -1.30573,-0.68287 -4.90573,-3.67665 -8,-6.65283 -7.131415,-6.85925 -12.499986,-10.78064 -14.759228,-10.78064 -1.202599,0 -1.440554,-0.32617 -0.745227,-1.0215 0.561822,-0.56182 8.232623,-1.40361 17.046225,-1.87064 l 16.02473,-0.84914 12.90377,-5.52959 c 16.24197,-6.96009 18.65057,-7.60989 30.90378,-8.33722 11.99081,-0.71176 18.96103,0.90143 9,2.08296 -14.0845,1.67064 -24.69433,5.78613 -30.89043,11.98223 -1.90151,1.90151 -5.487,6.5949 -7.96776,10.42977 -5.00788,7.74138 -6.8331,9.11313 -12.12573,9.11313 -1.98847,0 -4.83055,0.60189 -6.31574,1.33753 -2.17465,1.07714 -3.16251,1.09582 -5.07439,0.0959 z M -26.5,479.71352 c -8.183815,-1.56081 -17.162144,-5.13169 -19.923004,-7.92382 -9.439735,-9.54665 -10.816399,-12.24316 -8.479675,-16.60937 1.715999,-3.20637 -0.572326,-20.85604 -2.9638,-22.85955 -3.574801,-2.99488 -4.448819,-5.82845 -2.646326,-8.5794 0.896137,-1.36768 2.279126,-2.73603 3.073308,-3.04079 2.572986,-0.98735 6.478874,0.65391 7.644523,3.21223 0.956287,2.09882 0.791936,2.96219 -1.034009,5.43192 -2.14832,2.90576 -2.896685,8.9628 -1.543174,12.49 0.508441,1.32497 0.977217,1.06163 2.464929,-1.38471 1.010397,-1.66147 4.440367,-4.72342 7.622157,-6.80435 3.181789,-2.08092 6.648126,-4.85053 7.702971,-6.15468 2.991947,-3.69907 7.951765,-5.20525 19.24713,-5.8449 9.3714,-0.53069 10.70301,-0.38954 13.13194,1.39199 1.48667,1.09042 4.95303,2.54076 7.70303,3.22299 2.75,0.68222 7.40921,2.54108 10.35379,4.13079 l 5.3538,2.89038 -0.638,-3.71004 c -1.31724,-7.66001 -1.75105,-9.21003 -2.57762,-9.21003 -1.81559,0 -3.99197,-3.27916 -3.99197,-6.01472 0,-3.06208 3.03906,-5.98528 6.22251,-5.98528 2.45557,0 5.77749,3.54832 5.77749,6.17126 0,1.19419 -0.73409,2.98242 -1.63131,3.97383 -2.34544,2.59169 -1.97139,13.13858 0.64146,18.08665 1.09442,2.07254 2.98021,5.65584 4.19065,7.96289 2.6403,5.0323 3.05805,13.56625 0.7992,16.32624 -1.7554,2.14485 -25.48183,13.63201 -33.78619,16.3576 -5.54333,1.81939 -18.65531,3.2469 -22.71381,2.47287 z M -5,472.52453 c 11.63514,-4.06264 15.09734,-5.39835 14.78981,-5.70587 -0.17522,-0.17522 -3.27099,0.5001 -6.87949,1.5007 -16.47942,4.56961 -37.458869,5.24268 -44.017566,1.41219 -1.862277,-1.08762 -4.399987,-3.48222 -5.639356,-5.32132 C -47.985971,462.57113 -49,461.54843 -49,462.13757 c 0,1.52774 4.821418,7.05515 7.357861,8.43526 8.744726,4.7581 25.976229,5.67592 36.642139,1.9517 z m -21.885652,-5.2767 c 1.785547,-1.78555 2.042772,-2.97748 1.654064,-7.66476 -0.400229,-4.82623 -0.93512,-5.98556 -4.099662,-8.88565 -4.171853,-3.82322 -5.55212,-4.06002 -8.718778,-1.49581 -4.519764,3.65988 -2.177813,14.69066 3.922832,18.47686 3.485113,2.16293 4.721497,2.08941 7.241544,-0.43064 z M -36.8,463.16218 c -2.848457,-2.84846 0.264317,-8.31939 3.3,-5.8 0.825,0.68469 1.5,1.99979 1.5,2.92244 0,1.63481 -1.797218,4.07756 -3,4.07756 -0.33,0 -1.14,-0.54 -1.8,-1.2 z m 34.39501,1.09357 c 4.35221,-4.81244 0.91409,-17.19741 -5.51313,-19.85965 -7.01408,-2.90533 -11.44735,5.36895 -7.69208,14.35658 2.97822,7.12788 9.33866,9.7785 13.20521,5.50307 z m -10.47503,-4.66939 c -1.22481,-2.28857 0.35594,-5.22418 2.81308,-5.22418 2.1472,0 3.20447,3.00286 1.88649,5.35797 -1.20722,2.15717 -3.50855,2.09166 -4.69957,-0.13379 z m 31.57143,3.05064 c 4.87058,-2.84917 6.55435,-4.43651 7.16006,-6.75 0.73321,-2.80043 0.58273,-3.04806 -2.02843,-3.33808 -4.43215,-0.49228 -5.95218,-5.4089 -3.45851,-11.18674 C 21.88721,437.83414 6.68285,430.85395 -4,430.17663 c -4.24193,-0.26895 -4.51815,-0.12844 -4.81642,2.45012 -0.2895,2.50268 -0.67867,2.73543 -4.57379,2.73543 -2.34155,0 -8.44518,0.71937 -13.563622,1.59859 -7.19641,1.23618 -9.475475,1.32481 -10.05263,0.39095 -1.150706,-1.86188 -8.93976,5.71919 -11.132938,10.83567 -1.02333,2.38733 -1.800474,5.99079 -1.726987,8.0077 0.130265,3.57522 0.150204,3.55435 0.795879,-0.83291 1.284988,-8.7313 4.884198,-12.01115 16.417704,-14.96092 C -24.12968,438.22141 -2.9314,436.31862 4.5,437.06636 l 5,0.5031 0.0634,7.14636 c 0.0708,7.98362 1.7627,12.26016 6.10068,15.42015 l 2.72002,1.9814 -3.94203,2.07821 c -2.16811,1.14301 -3.53178,2.0981 -3.03037,2.1224 0.50141,0.0243 3.77731,-1.63213 7.27976,-3.68098 z m 252.52584,-9.52482 0.28275,-11.25 11,0 11,0 0.28275,11.25 0.28275,11.25 -11.5655,0 -11.5655,0 0.28275,-11.25 z"
         id="path3247" />
      <path
         style="fill:#9f9f9f"
         d="m 627,636.7197 c -9.40611,-0.80466 -9.12264,-0.52659 -8.79321,-8.6256 l 0.29321,-7.20828 7.5,0.31248 c 12.7833,0.53261 16.59614,-2.16217 22.94656,-16.21783 l 4.16359,-9.21547 -20.3174,-44.95141 c -11.17457,-24.72327 -20.67591,-45.51391 -21.11409,-46.20141 -0.47752,-0.74923 -2.97646,-1.25 -6.23768,-1.25 l -5.44098,0 0,-7.5 0,-7.5 27,0 27,0 0,7.46617 0,7.46617 -10.42589,0.28383 -10.42588,0.28383 15.11941,35.30445 c 13.72879,32.05729 15.23006,35.09249 16.32239,33 C 666.66237,568.1968 693,505.27543 693,504.29438 c 0,-0.51412 -4.48488,-0.9322 -10,-0.9322 l -10,0 0,-7.5 0,-7.5 25.5,0 25.5,0 0,7.5 0,7.5 -5.85897,0 -5.85898,0 -23.25901,54.25 c -12.79245,29.8375 -24.8269,57.26893 -26.74321,60.95874 -7.46305,14.3699 -17.72774,19.6503 -35.27983,18.14878 z M 15.80321,606.96279 c -12.3224,-3.31728 -20.11183,-13.14423 -22.82836,-28.79968 -3.06242,-17.64881 5.03386,-27.99584 24.222,-30.9557 9.49722,-1.465 16.73799,-0.12385 22.71764,4.20779 12.6777,9.18368 19.55096,33.2593 13.20341,46.24882 -1.29058,2.64101 -3.47462,5.54101 -4.85344,6.44445 -5.84788,3.83167 -23.17217,5.355 -32.46125,2.85432 z M 29,577.36218 c -0.67396,-2.80937 -1.45038,-4.88295 -1.72538,-4.60795 -0.275,0.275 0.0514,2.79858 0.72538,5.60795 0.67396,2.80937 1.45038,4.88295 1.72538,4.60795 0.275,-0.275 -0.0514,-2.79858 -0.72538,-5.60795 z m 733.19885,19.56506 c -16.2723,-3.10148 -30.38628,-13.16925 -36.94966,-26.35692 -9.08977,-18.2639 -8.1236,-45.11509 2.18442,-60.70814 10.31683,-15.60638 26.49714,-23.5 48.17018,-23.5 31.78966,0 49.13603,17.59336 52.00947,52.75 l 0.67429,8.25 -44.28623,0 -44.28623,0 0.62761,6.25 c 0.90973,9.05935 5.76143,18.13044 11.97568,22.39056 6.48512,4.44581 10.3645,5.50228 22.34539,6.0853 8.60127,0.41856 11.15496,0.16475 16.61134,-1.65102 8.04966,-2.67876 14.0189,-7.65937 16.28208,-13.58543 l 1.71453,-4.48941 9.00006,0 9.00007,0 -0.63136,4.60629 c -1.34105,9.784 -9.40823,19.77503 -20.0165,24.79003 -11.90338,5.62724 -30.60404,7.80301 -44.42514,5.16874 z M 808,529.39969 c 0,-9.99309 -9.06575,-22.16275 -19.11772,-25.66321 -7.71932,-2.68814 -21.4762,-2.4703 -28.96163,0.45861 -10.60307,4.14878 -18.15158,13.27694 -19.57655,23.67327 l -0.61595,4.49382 34.13593,0 34.13592,0 0,-2.96249 z M 144.66667,595.69551 C 144.3,595.32885 144,591.72885 144,587.69551 l 0,-7.33333 12.5,0 12.5,0 0,-61.5 0,-61.5 -19.5,0 -19.5,0 0,17.5 0,17.5 -9.51717,0 -9.51717,0 0.26717,-25.25 0.26717,-25.25 68.5,0 68.5,0 0.26717,25.25 0.26717,25.25 -9.01717,0 -9.01717,0 0,-17.5 0,-17.5 -20,0 -20,0 0,61.5 0,61.5 12.5,0 12.5,0 0,8 0,8 -35.33333,0 c -19.43334,0 -35.63334,-0.3 -36,-0.66667 z m 110.75047,-0.68866 c -0.28605,-0.74543 -0.38442,-4.23293 -0.21861,-7.75 l 0.30147,-6.39467 9.25,-0.28753 9.25,-0.28752 0,-38.46248 0,-38.46247 -9.54381,0 -9.54381,0 0.29381,-7.25 0.29381,-7.25 19.25,-0.27159 19.25,-0.2716 0,46.0216 0,46.02159 9,0 9,0 0,8 0,8 -28.03138,0 c -22.66444,0 -28.13097,-0.25949 -28.55148,-1.35533 z M 319,588.37775 l 0,-8.01557 9,0 9,0 0,-38.5 0,-38.5 -9,0 -9,0 0,-7.5 0,-7.5 19,0 19,0 0.0228,9.75 c 0.0225,9.65232 0.0389,9.7173 1.63172,6.48593 2.59078,-5.25592 9.36035,-11.31873 16.26043,-14.56281 5.47482,-2.57399 7.91534,-3.08271 16.65328,-3.47133 14.52447,-0.64597 22.6006,1.83657 29.97953,9.2155 4.26774,4.26775 5.67714,6.57092 7.36499,12.03555 1.93711,6.27165 2.08728,9.1244 2.08728,39.6525 l -3e-5,32.89466 9.5,0 9.5,0 0,8.01557 0,8.01558 -28.25,-0.26558 -28.25,-0.26557 -0.29206,-7.75 -0.29207,-7.75 9.61834,0 9.61835,0 -0.32628,-30.75 -0.32628,-30.75 -2.64802,-5.64808 c -2.10791,-4.49608 -3.63764,-6.22977 -7.5,-8.5 -4.37977,-2.57436 -5.72789,-2.84902 -13.85198,-2.82211 -14.06999,0.0466 -21.92926,4.76614 -27.41699,16.4641 -2.55725,5.45119 -2.58619,5.7874 -2.90231,33.71765 l -0.31929,28.21155 9.31929,0.28845 9.3193,0.28844 0,7.5 0,7.5 -28.25,0.26557 -28.25,0.26558 0,-8.01558 z m 139,-0.0156 0,-8 11.5,0 11.5,0 0,-61.5 0,-61.5 -11.5,0 -11.5,0 0,-8 0,-8 67,0 67,0 0,23.5 0,23.5 -9,0 -9,0 0,-15.5 0,-15.5 -36,0 -36,0 0,26.5 0,26.5 17,0 17,0 0,-11.03753 0,-11.03752 9.25,0.28752 9.25,0.28753 0,29.5 0,29.5 -9,0 -9,0 -0.28298,-11.27403 -0.28297,-11.27403 -16.71703,0.27403 -16.71702,0.27403 -0.26607,27.25 -0.26607,27.25 36.01607,0 36.01607,0 0,-16.5 0,-16.5 9,0 9,0 0,24.5 0,24.5 -67,0 -67,0 0,-8 z M 92.57143,546.79075 c -1.77244,-1.77243 -2.09642,-6.50358 -0.55117,-8.04883 0.69367,-0.69367 -0.0255,-3.07839 -2.24663,-7.45 C 84.94551,521.78944 71.81865,508.97585 61.5,503.69305 l -8,-4.09573 -2.32606,2.88243 c -1.36341,1.68953 -3.29242,2.88243 -4.6611,2.88243 -5.43963,0 -10.08665,-11.04661 -7.62166,-18.1177 1.60089,-4.59229 1.49034,-4.62725 -2.61986,-0.82847 -2.05078,1.89539 -2.95078,2.51074 -2,1.36743 C 35.22209,486.64013 36,485.33289 36,484.87845 c 0,-1.65614 -4.40307,3.13141 -8.26227,8.98373 -3.92965,5.95915 -4.23246,4.47078 -0.56793,-2.79149 6.04914,-11.98802 22.14866,-19.66007 30.1947,-14.38895 l 2.77744,1.81955 -2.66785,2.47248 c -2.04106,1.8916 -2.9836,2.21044 -4.01179,1.35713 -1.11731,-0.92729 -1.14313,-0.57927 -0.15311,2.06396 0.85662,2.28707 2.59401,3.8847 6.19081,5.69281 17.416,8.75499 29.62607,22.38077 34.70561,38.72962 1.20386,3.87469 3.03227,8.00815 4.06313,9.18547 1.22481,1.39882 1.76289,3.278 1.55278,5.42299 -0.39186,4.00055 -2.41858,5.05372 -2.36199,1.22738 0.0282,-1.90616 -0.53502,-2.85103 -1.85688,-3.11519 -1.66216,-0.33216 -1.82489,0.0673 -1.31287,3.22254 0.65838,4.05713 0.498,4.24662 -1.71835,2.03027 z m -155.251735,-1.9324 c 0.231595,-3.06674 -1.715285,-3.73171 -2.141189,-0.73134 -0.176822,1.24566 -0.739322,2.0066 -1.25,1.69098 -1.599482,-0.98853 -1.013647,-5.29785 0.974306,-7.16685 1.046547,-0.98393 2.436434,-3.81396 3.088638,-6.28896 1.834347,-6.96102 8.622019,-20.80631 13.122893,-26.76767 3.986601,-5.28022 4.101134,-5.3473 6.076799,-3.55935 1.107489,1.00226 2.610065,2.9757 3.339057,4.38542 1.263411,2.44317 1.094774,2.76181 -3.60338,6.8087 -8.270972,7.12445 -17.597682,22.32383 -16.465785,26.83367 0.763402,3.04163 -0.07707,5.93791 -1.929406,6.64872 -0.974882,0.3741 -1.338187,-0.18148 -1.211933,-1.85332 z M -7,534.86218 c 5.69573,-5.23625 6.23481,-5.49784 11.24131,-5.4549 2.89228,0.0248 6.60869,0.62258 8.25869,1.32837 l 3,1.28327 -4.48274,0.72066 c -2.4655,0.39637 -7.92214,2.2736 -12.12586,4.17163 -11.53115,5.20646 -13.16532,4.6381 -5.8914,-2.04903 z m 2,-13.41667 c 0,-1.22833 0.64569,-2.08333 1.57332,-2.08333 0.93124,0 1.44138,0.68037 1.25,1.66713 C -2.66323,523.53808 -5,523.88256 -5,521.44551 z m 4.60699,0.33488 c -0.85118,-2.21812 -0.78614,-2.41821 0.78602,-2.41821 1.50843,0 2.84457,2.42909 1.87142,3.40223 -1.02841,1.02842 -2.0271,0.65862 -2.65744,-0.98402 z m -9.38929,-2.57271 c 0.24642,-0.74002 1.25007,-1.50098 2.23033,-1.691 1.14002,-0.221 1.62085,0.13937 1.33427,1 -0.24642,0.74002 -1.25007,1.50098 -2.23033,1.691 -1.14002,0.221 -1.62085,-0.13937 -1.33427,-1 z M 3.49583,518.98279 C 2.35858,518.15121 2.08732,517.42625 2.75827,517.01158 4.0164,516.23401 7,517.21776 7,518.41015 7,520.00828 5.28218,520.289 3.49583,518.98279 z M -12,513.86218 c 0,-1.61396 0.91589,-1.85324 3.41821,-0.89301 2.43449,0.9342 1.87474,2.39301 -0.91821,2.39301 -1.55556,0 -2.5,-0.56667 -2.5,-1.5 z m 15,0.10699 c 0,-1.31026 2.0303,-2.60699 4.08179,-2.60699 1.5528,0 1.01521,2.7488 -0.66358,3.39301 C 3.9539,515.70084 3,515.48149 3,513.96917 z m -12.96365,-4.06319 c -0.66469,-0.8009 -0.92393,-1.91669 -0.57608,-2.47952 C -9.73312,506.12135 -6,508.3221 -6,510.10273 c 0,1.71478 -2.47936,1.59171 -3.96365,-0.19675 z m 10.42471,0.39319 c -0.36134,-0.58466 0.14147,-1.94529 1.11735,-3.02363 2.23806,-2.47303 4.07636,-1.00532 2.47905,1.97928 -1.23454,2.30675 -2.57553,2.69616 -3.5964,1.04435 z M -3.8,509.16218 c -1.45598,-1.45598 -1.57151,-4.45236 -0.20425,-5.29737 1.40445,-0.868 3.62019,4.28143 2.37712,5.5245 -0.63049,0.63049 -1.39518,0.55056 -2.17287,-0.22713 z M -16,498.97949 c -1.375,-0.7881 -3.85,-3.25976 -5.5,-5.49259 -2.70702,-3.66322 -7.765725,-7.03585 -12.893128,-8.59583 -3.663885,-1.11471 -0.742265,-1.58362 15.096048,-2.42289 l 15.98953,-0.84728 12.90377,-5.52959 c 19.61855,-8.40704 29.55155,-10.59665 18.84495,-4.15413 -9.38583,5.64776 -12.06533,8.02496 -18.19484,16.14204 -3.16048,4.18531 -6.92974,8.48363 -8.37612,9.55181 -3.46787,2.56109 -14.32513,3.38036 -17.87021,1.34846 z M -34.6736,471.3178 c -9.69107,-1.91621 -13.682943,-6.48841 -13.728807,-15.72467 -0.02347,-4.72639 0.34225,-5.63746 3.551066,-8.84628 2.623744,-2.62374 5.395136,-4.08132 10.397539,-5.46844 C -25.933867,438.9159 -8.87738,437.11783 1,437.54092 l 7.5,0.32126 0.61527,7.564 c 0.68245,8.38993 1.84177,11.39662 5.62586,14.59072 l 2.55272,2.15472 -3.98363,2.0323 c -5.43097,2.77067 -18.00727,5.87335 -28.83403,7.1136 -10.191744,1.1675 -13.24649,1.16754 -19.14979,2.8e-4 z m 7.787948,-4.06997 c 1.785547,-1.78555 2.042772,-2.97748 1.654064,-7.66476 -0.400229,-4.82623 -0.93512,-5.98556 -4.099662,-8.88565 -4.171853,-3.82322 -5.55212,-4.06002 -8.718778,-1.49581 -4.519764,3.65988 -2.177813,14.69066 3.922832,18.47686 3.485113,2.16293 4.721497,2.08941 7.241544,-0.43064 z M -36.8,463.16218 c -2.848457,-2.84846 0.264317,-8.31939 3.3,-5.8 0.825,0.68469 1.5,1.99979 1.5,2.92244 0,1.63481 -1.797218,4.07756 -3,4.07756 -0.33,0 -1.14,-0.54 -1.8,-1.2 z m 34.39501,1.09357 c 4.35221,-4.81244 0.91409,-17.19741 -5.51313,-19.85965 -7.01408,-2.90533 -11.44735,5.36895 -7.69208,14.35658 2.97822,7.12788 9.33866,9.7785 13.20521,5.50307 z m -10.47503,-4.66939 c -1.22481,-2.28857 0.35594,-5.22418 2.81308,-5.22418 2.1472,0 3.20447,3.00286 1.88649,5.35797 -1.20722,2.15717 -3.50855,2.09166 -4.69957,-0.13379 z m -42.268335,2.34956 c -1.193973,-2.62048 -0.430484,-7.57374 1.167407,-7.57374 0.539521,0 0.987093,1.2375 0.994603,2.75 0.0075,1.5125 0.284994,3.7625 0.616631,5 0.820663,3.06229 -1.366264,2.92357 -2.778641,-0.17626 z m 326.365605,-8.82374 0.28275,-11.25 11,0 11,0 0.28275,11.25 0.28275,11.25 -11.5655,0 -11.5655,0 0.28275,-11.25 z M 20.3527,449.77772 c -1.41582,-2.16081 -1.50155,-3.11498 -0.52305,-5.821 2.02415,-5.59769 0.67186,-22.571 -1.86701,-23.43383 -4.26776,-1.45037 -5.35445,-8.07244 -1.74013,-10.60401 2.99128,-2.09517 5.37488,-1.95931 7.77749,0.4433 2.42344,2.42344 2.57189,5.71059 0.36788,8.14599 -3.08572,3.40968 -1.31745,18.28766 2.82141,23.73887 2.07208,2.72911 2.37499,7.15086 0.61071,8.91514 -2.04405,2.04405 -5.63871,1.3758 -7.4473,-1.38446 z m -74.656544,-2.41554 c -0.325039,-1.375 -0.871636,-5.08439 -1.214661,-8.24309 -0.415285,-3.8241 -1.215176,-6.16308 -2.393889,-7 -0.973614,-0.6913 -2.323604,-2.29959 -2.999979,-3.57397 -1.015413,-1.91318 -0.945765,-2.7505 0.399568,-4.80374 0.896137,-1.36768 2.279126,-2.73603 3.073308,-3.04079 2.572986,-0.98735 6.478874,0.65391 7.644523,3.21223 0.963014,2.11358 0.784622,2.97209 -1.165755,5.61011 -1.987326,2.68801 -2.234211,3.95193 -1.802321,9.22695 0.275243,3.36177 0.174134,7.2373 -0.224686,8.6123 l -0.725129,2.5 -0.590979,-2.5 z m 16.871258,-11.58742 c -0.762387,-3.03759 1.667286,-7.76055 5.437961,-10.57066 5.038704,-3.75512 25.533665,-5.25394 29.911655,-2.18748 l 2.36204,1.65444 -3.35579,1.09556 c -3.10104,1.01239 -4.99414,3.35614 -6.33704,7.84556 -0.40162,1.34265 -1.63644,1.75812 -5.30486,1.78489 -2.62976,0.0192 -8.38138,0.68533 -12.78138,1.48032 -4.4,0.79499 -8.288716,1.45429 -8.641592,1.46512 -0.352876,0.0108 -0.933823,-1.14467 -1.290994,-2.56775 z"
         id="path3245" />
      <path
         style="fill:#d46811"
         d="m 621.25,635.7078 c -2.06968,-0.44588 -2.25,-1.0389 -2.25,-7.39979 l 0,-6.91508 8.42139,0.11477 c 12.90307,0.17585 16.1107,-2.5173 23.08106,-19.37894 l 2.78349,-6.73342 -20.78928,-46.01658 -20.78929,-46.01658 -5.85369,0 -5.85368,0 0,-7.5 0,-7.5 26.5,0 26.5,0 0,7.5 0,7.5 -10.10699,0 c -7.67831,0 -9.99012,0.30037 -9.62064,1.25 3.685,9.47118 30.15465,70.65632 30.4425,70.36847 0.21603,-0.21604 7.09596,-16.30607 15.28874,-35.75563 l 14.89595,-35.36284 -10.4929,-0.28427 -10.4929,-0.28427 0.29312,-7.21573 0.29312,-7.21573 25,0 25,0 0.29282,7.20117 0.29283,7.20117 -6.17072,0.29883 -6.17071,0.29883 -23.65422,55 c -26.51739,61.65737 -27.17481,63.07081 -31.90718,68.59951 -5.63572,6.58409 -10.02177,8.26796 -22.18282,8.51637 -5.775,0.11796 -11.5125,-0.004 -12.75,-0.27026 z M 19.79059,607.26571 C 9.04128,605.71911 1.28067,599.62304 -3.63803,588.86218 -6.86851,581.79473 -8.03611,569.03164 -6.01298,562.9015 -3.22065,554.44066 4.59416,549.34314 17.5,547.56423 c 13.87622,-1.91267 22.92124,1.74062 29.49635,11.9136 10.75095,16.63381 10.84605,37.49082 0.20319,44.56063 -3.01142,2.00041 -5.5064,2.50985 -18.19954,3.7161 -1.925,0.18294 -6.06923,-0.0371 -9.20941,-0.48885 z m 10.70669,-25.15353 c -1.48668,-7.30277 -2.62663,-10.75 -3.55488,-10.75 -0.98568,0 -0.74772,1.86508 1.24399,9.75 1.25343,4.96219 3.29759,5.84677 2.31089,1 z M 757.5,595.51006 c -8.74716,-2.64772 -12.37935,-4.40458 -18.19058,-8.7986 -13.8562,-10.47704 -21.25111,-28.4487 -19.89457,-48.34928 1.10639,-16.23084 5.5757,-27.11953 15.0163,-36.58454 10.88147,-10.90961 26.89254,-16.22476 45.53165,-15.11499 29.30618,1.74487 44.27491,18.72253 47.56581,53.94953 l 0.63058,6.75 -44.21651,0 -44.2165,0 0.5066,6.3112 c 0.93273,11.61984 6.76009,20.64788 16.21468,25.12062 6.49685,3.0735 18.18233,5.00458 25.25435,4.17341 12.46361,-1.46486 24.08153,-8.81235 26.45374,-16.73006 l 1.16103,-3.87517 8.84171,0 c 4.86294,0 8.84171,0.35546 8.84171,0.7899 0,3.25532 -3.55075,13.15024 -5.99238,16.69902 -3.77779,5.49083 -13.29449,11.87083 -21.85769,14.65339 -9.46531,3.0757 -32.93866,3.64243 -41.64993,1.00557 z m 50.79596,-66.89788 c -2.6917,-17.4545 -14.71822,-27.25 -33.45646,-27.25 -18.03187,0 -32.76364,11.12045 -34.53401,26.06839 l -0.58407,4.93161 34.57642,0 34.57642,0 -0.5783,-3.75 z m -664.08977,59.5 0.29381,-7.25 12.75762,-0.27993 12.75761,-0.27994 -0.25761,-61.72006 -0.25762,-61.72007 -20,0 -20,0 -0.27307,17.75 -0.27308,17.75 -8.47692,0 -8.47693,0 0,-25 0,-25 68.5,0 68.5,0 0,25 0,25 -8.97693,0 -8.97692,0 -0.27308,-17.75 -0.27307,-17.75 -20,0 -20,0 -0.25762,61.72007 -0.25761,61.72006 12.75761,0.27994 12.75762,0.27993 0.29381,7.25 0.29381,7.25 -36.08762,0 -36.08762,0 0.29381,-7.25 z m 111.79381,-0.25 0,-7.5 9,0 9,0 0,-38.5 0,-38.5 -9,0 -9,0 0,-7.5 0,-7.5 18.5,0 18.5,0 0,46 0,46 9.5,0 9.5,0 0,7.5 0,7.5 -28,0 -28,0 0,-7.5 z m 63,0 0,-7.5 9.5,0 9.5,0 0,-38.5 0,-38.5 -9.5,0 -9.5,0 0,-7.52207 0,-7.52206 18.75,0.27206 18.75,0.27207 0.5,9.46557 c 0.44888,8.49772 0.62553,9.18808 1.72774,6.75181 2.4181,-5.34492 9.09977,-11.3407 16.50644,-14.81205 6.91191,-3.23946 7.80162,-3.4034 18.26582,-3.36564 6.05,0.0218 12.8708,0.59045 15.15734,1.26359 6.25676,1.84197 13.45133,7.15072 16.52931,12.19672 5.23077,8.57523 5.81335,13.40281 5.81335,48.17257 l 0,31.75238 9.25,0.28752 9.25,0.28753 0.29381,7.25 0.29381,7.25 -28.04381,0 -28.04381,0 0,-7.5 0,-7.5 9.05265,0 9.05265,0 -0.30265,-31.25 c -0.3007,-31.04902 -0.31873,-31.28211 -2.80265,-36.24335 -3.81881,-7.62746 -8.96799,-10.71976 -18.79763,-11.28879 -14.639,-0.84744 -24.30624,4.18417 -29.89142,15.55789 l -2.81095,5.72425 -0.30632,28.75 -0.30632,28.75 9.05632,0 9.05632,0 0,7.5 0,7.5 -28,0 -28,0 0,-7.5 z m 139,0 0,-7.5 12.00763,0 12.00763,0 -0.25763,-61.75 -0.25763,-61.75 -11.75,-0.28174 -11.75,-0.28173 0,-6.96827 0,-6.96826 67,0 67,0 0,23 0,23 -9,0 -9,0 0,-16.01263 0,-16.01263 -35.75,0.26263 -35.75,0.26263 -0.26633,26.75 -0.26634,26.75 17.51634,0 17.51633,0 0,-11 0,-11 8.5,0 8.5,0 0,29.5 0,29.5 -8.5,0 -8.5,0 0,-11 0,-11 -17.5,0 -17.5,0 0,27.5 0,27.5 36,0 36,0 0,-16 0,-16 9,0 9,0 0,23.5 0,23.5 -67,0 -67,0 0,-7.5 z m -365.8,-41.7 c -1.47085,-1.47085 -1.54261,-4.29132 -0.17424,-6.84814 0.78788,-1.47217 0.46426,-3.02474 -1.39546,-6.69473 -6.18691,-12.20927 -17.65005,-23.6011 -29.96554,-29.77911 l -6.83523,-3.42887 -2.50366,2.97542 c -1.4537,1.72762 -3.47753,2.97543 -4.82587,2.97543 -5.42684,0 -10.07028,-11.05672 -7.60882,-18.1177 1.60089,-4.59229 1.49034,-4.62725 -2.61986,-0.82847 -2.05078,1.89539 -2.95078,2.51074 -2,1.36743 C 35.22209,486.64013 36,485.33289 36,484.87845 c 0,-1.65614 -4.40307,3.13141 -8.26227,8.98373 -3.92965,5.95915 -4.23246,4.47078 -0.56793,-2.79149 6.04914,-11.98802 22.14866,-19.66007 30.1947,-14.38895 l 2.77744,1.81955 -2.66785,2.47248 c -2.04106,1.8916 -2.9836,2.21044 -4.01179,1.35713 -1.1173,-0.92729 -1.14312,-0.57963 -0.15311,2.06168 0.78442,2.09281 2.55589,3.87223 5.19081,5.21408 18.41782,9.37941 30.65316,23.35347 36.12233,41.25552 1.00817,3.3 2.63058,6.58802 3.60535,7.3067 1.92801,1.42149 2.48026,7.63773 0.77232,8.6933 -0.56216,0.34743 -1,-0.4488 -1,-1.81854 0,-3.18088 -2.69636,-5.63631 -3.60089,-3.27914 -0.34351,0.89516 -0.39096,2.52084 -0.10545,3.61262 0.58549,2.23894 -0.30563,2.57309 -2.09366,0.78506 z m -158.45,-0.37073 c -1.405281,-1.4289 -0.755104,-5.31227 1.108789,-6.62257 1.022334,-0.71868 2.639391,-3.99563 3.593461,-7.2821 2.429872,-8.37015 7.720142,-19.15603 12.677771,-25.84763 4.070747,-5.49453 4.271856,-5.62325 6.141647,-3.93111 1.0632,0.96218 2.534654,2.91271 3.269898,4.33452 1.270971,2.45779 1.134955,2.74024 -2.761799,5.73517 -8.093286,6.22027 -18.556974,22.95167 -17.353231,27.74777 0.627171,2.49885 -0.794022,6.43668 -2.323048,6.43668 -0.454379,0 -0.611087,-1.125 -0.348239,-2.5 0.343525,-1.79704 0.04202,-2.5 -1.07225,-2.5 -0.920848,0 -1.67861,1.05386 -1.866577,2.59594 -0.174032,1.42777 -0.653922,2.25277 -1.066422,1.83333 z m 59.13917,-10.82738 c 5.68387,-5.22535 6.42575,-5.60189 11.03704,-5.60189 2.71898,0 6.21039,0.51766 7.75869,1.15035 l 2.8151,1.15034 -4.34842,0.81431 c -2.39164,0.44787 -7.11664,2.13954 -10.5,3.75926 -3.38337,1.61972 -7.66004,3.25647 -9.50372,3.63723 -3.29521,0.68053 -3.24865,0.59714 2.74131,-4.9096 z m 2.55698,-12.68902 c -0.36954,-0.59793 -0.17109,-1.58793 0.44098,-2.2 C -3.29571,519.25789 -3,519.54676 -3,521.16218 c 0,2.41451 -0.51946,2.78655 -1.55385,1.11287 z M 0,520.80316 c 0,-0.85746 0.45,-1.2809 1,-0.94098 0.55,0.33992 1,1.04148 1,1.55902 0,0.51754 -0.45,0.94098 -1,0.94098 -0.55,0 -1,-0.70156 -1,-1.55902 z m -8.77106,-1.6278 C -8.27278,517.68052 -6,516.85747 -6,518.17186 c 0,0.53699 -0.7126,1.24979 -1.58356,1.58401 -0.97391,0.37373 -1.43108,0.15024 -1.1875,-0.58051 z M 3,518.36218 c 0,-0.55 0.64844,-1 1.44098,-1 0.79254,0 1.7191,0.45 2.05902,1 0.33992,0.55 -0.30852,1 -1.44098,1 -1.13246,0 -2.05902,-0.45 -2.05902,-1 z m -14.5,-4 c -0.33992,-0.55 0.30852,-1 1.44098,-1 1.13246,0 2.05902,0.45 2.05902,1 0,0.55 -0.64844,1 -1.44098,1 -0.79254,0 -1.7191,-0.45 -2.05902,-1 z m 14.5,-1 c 0,-0.55 1.15156,-1 2.55902,-1 1.45136,0 2.2915,0.43284 1.94098,1 -0.33992,0.55 -1.49148,1 -2.55902,1 -1.06754,0 -1.94098,-0.45 -1.94098,-1 z m -12.02006,-3.52417 c -0.69572,-0.83829 -0.98669,-1.80241 -0.64661,-2.1425 0.72629,-0.72629 3.66667,1.51036 3.66667,2.78911 0,1.37745 -1.62985,1.02849 -3.02006,-0.64661 z M 1,509.57618 c 0,-2.4417 1.7578,-3.8562 3.11076,-2.50324 0.582,0.582 0.17047,1.62974 -1.08713,2.76786 C 1.05328,511.62394 1,511.61697 1,509.57618 z m -5,-1.714 c 0,-0.825 -0.0337,-1.82625 -0.075,-2.225 -0.0412,-0.39875 0.40875,-0.88625 1,-1.08333 0.59125,-0.19709 1.075,0.80416 1.075,2.225 0,1.42083 -0.45,2.58333 -1,2.58333 -0.55,0 -1,-0.675 -1,-1.5 z m -9.62536,-8.60202 c -1.86714,-0.53204 -4.95284,-3.02965 -7.66472,-6.20394 -2.5946,-3.03701 -6.385871,-6.14466 -8.849391,-7.25371 l -4.310036,-1.94033 15.974757,-1.07071 C -3.31771,481.77557 -2.0649,481.52885 6,477.97168 c 12.28217,-5.41728 19.94054,-8.24704 24.5,-9.05273 l 4,-0.70683 -5,2.66038 c -8.43795,4.48963 -13.76,9.19184 -19.53344,17.25842 -5.86283,8.19148 -9.33699,10.62142 -16.46656,11.51723 -2.2,0.27642 -5.40641,0.10183 -7.12536,-0.38799 z M -34.6736,471.3178 c -9.666747,-1.9114 -13.682734,-6.49321 -13.728807,-15.66307 -0.03035,-6.04051 2.108169,-9.00944 8.818412,-12.24268 7.330712,-3.5322 36.649845,-7.1981 45.016175,-5.62857 L 9,438.45281 l 0,6.4868 c 0,7.47867 1.67604,12.23598 5.32094,15.10306 l 2.5633,2.01629 -3.69212,2.07034 c -4.87375,2.73292 -17.5725,5.91169 -28.71593,7.18822 -10.191744,1.1675 -13.24649,1.16754 -19.14979,2.8e-4 z m 7.940701,-3.70562 c 3.981039,-4.41755 2.416059,-13.99427 -2.980561,-18.23925 -9.517692,-7.48661 -15.641891,7.16852 -6.878573,16.46034 3.700041,3.92319 7.335587,4.57916 9.859134,1.77891 z m -10.195811,-5.11679 c -1.38711,-2.59184 -0.363731,-5.13321 2.067084,-5.13321 2.326676,0 3.550153,2.6849 2.19933,4.8264 -1.50459,2.38527 -3.092924,2.49949 -4.266414,0.30681 z m 34.47416,2.41224 c 5.96893,-5.96892 0.05487,-21.54545 -8.18031,-21.54545 -4.10228,0 -6.36514,3.32475 -6.36514,9.35212 0,5.98977 2.73823,11.1969 7.03002,13.36857 3.52822,1.7853 4.74521,1.59499 7.51543,-1.17524 z M -12.5876,459.9945 c -1.00596,-2.6215 0.022,-5.13232 2.1013,-5.13232 1.53831,0 1.9863,0.67353 1.9863,2.9863 0,3.27174 -3.04264,4.86915 -4.0876,2.14602 z m -42.496673,1.64602 c -0.725799,-1.90899 -0.707229,-3.44053 0.06219,-5.12922 1.379669,-3.02804 1.597216,-2.74245 2.362074,3.10088 0.69101,5.27915 -0.734764,6.47207 -2.424265,2.02834 z M 272,453.36218 l 0,-11 10.5,0 10.5,0 0,11 0,11 -10.5,0 -10.5,0 0,-11 z M 20.5567,450.13967 c -1.92491,-2.7482 -1.96875,-4.7442 -0.16088,-7.32528 1.12697,-1.60899 1.21388,-3.81863 0.45123,-11.47251 -0.87604,-8.79179 -1.15875,-9.64823 -3.89582,-11.80218 -3.71574,-2.92411 -3.83436,-6.33769 -0.31637,-9.10494 3.34897,-2.6343 3.92623,-2.60239 6.91059,0.38197 3.00961,3.0096 3.09342,4.90658 0.33851,7.66149 -1.86876,1.86876 -2.03901,2.83284 -1.4569,8.25 0.81007,7.53846 2.28506,12.38974 4.71837,15.51882 2.10949,2.71266 2.43422,7.13549 0.65457,8.91514 -1.9093,1.9093 -5.54973,1.3954 -7.2433,-1.02251 z m -2.4529,-38.07369 c -1.28349,-1.28349 -2.58505,-0.2915 -1.63484,1.24598 0.36808,0.59556 1.12735,0.79971 1.68727,0.45366 0.683,-0.42212 0.66575,-0.98146 -0.0524,-1.69964 z m -72.510093,32.5924 c -1.549231,-11.48024 -1.759924,-12.17509 -4.170697,-13.75469 -4.592655,-3.00922 -1.988524,-10.54151 3.644509,-10.54151 4.087887,0 6.594857,7.37546 3.40642,10.02163 -1.17738,0.97714 -1.481522,3.17521 -1.331129,9.62024 0.22038,9.44432 -0.57871,11.84521 -1.549103,4.65433 z M -56,425.4212 c 0,-1.17986 -1.950354,-2.442 -2.666667,-1.72569 -0.716312,0.71632 0.545824,2.66667 1.725684,2.66667 0.517541,0 0.940983,-0.42344 0.940983,-0.94098 z m 18.891549,10.15573 c -1.151998,-3.02998 1.602513,-7.90978 5.888759,-10.43231 6.626122,-3.8996 26.569382,-4.86132 29.984742,-1.44596 1.55136,1.55136 1.48051,1.66352 -1.05076,1.66352 -3.13977,0 -6.39101,2.86377 -7.28213,6.41426 -0.54176,2.15857 -1.32218,2.53784 -6.27543,3.04977 -3.1112,0.32155 -8.96095,1.16825 -12.999441,1.88156 l -7.342711,1.29691 -0.923029,-2.42775 z"
         id="path3243" />
      <path
         style="fill:#5b5b5a"
         d="m 621.25,635.7078 c -2.06968,-0.44588 -2.25,-1.0389 -2.25,-7.39979 l 0,-6.91508 8.42139,0.11477 c 12.90307,0.17585 16.1107,-2.5173 23.08106,-19.37894 l 2.78349,-6.73342 -20.78928,-46.01658 -20.78929,-46.01658 -5.85369,0 -5.85368,0 0,-7.5 0,-7.5 26.5,0 26.5,0 0,7.5 0,7.5 -10.10699,0 c -7.67831,0 -9.99012,0.30037 -9.62064,1.25 3.685,9.47118 30.15465,70.65632 30.4425,70.36847 0.21603,-0.21604 7.09596,-16.30607 15.28874,-35.75563 l 14.89595,-35.36284 -10.4929,-0.28427 -10.4929,-0.28427 0.29312,-7.21573 0.29312,-7.21573 25,0 25,0 0.29282,7.20117 0.29283,7.20117 -6.17072,0.29883 -6.17071,0.29883 -23.65422,55 c -26.51739,61.65737 -27.17481,63.07081 -31.90718,68.59951 -5.63572,6.58409 -10.02177,8.26796 -22.18282,8.51637 -5.775,0.11796 -11.5125,-0.004 -12.75,-0.27026 z M 19.79059,607.26571 C 9.04128,605.71911 1.28067,599.62304 -3.63803,588.86218 -6.86851,581.79473 -8.03611,569.03164 -6.01298,562.9015 -3.22065,554.44066 4.59416,549.34314 17.5,547.56423 c 13.87622,-1.91267 22.92124,1.74062 29.49635,11.9136 10.75095,16.63381 10.84605,37.49082 0.20319,44.56063 -3.01142,2.00041 -5.5064,2.50985 -18.19954,3.7161 -1.925,0.18294 -6.06923,-0.0371 -9.20941,-0.48885 z m 10.70669,-25.15353 c -1.48668,-7.30277 -2.62663,-10.75 -3.55488,-10.75 -0.98568,0 -0.74772,1.86508 1.24399,9.75 1.25343,4.96219 3.29759,5.84677 2.31089,1 z M 757.5,595.51006 c -8.74716,-2.64772 -12.37935,-4.40458 -18.19058,-8.7986 -13.8562,-10.47704 -21.25111,-28.4487 -19.89457,-48.34928 1.10639,-16.23084 5.5757,-27.11953 15.0163,-36.58454 10.88147,-10.90961 26.89254,-16.22476 45.53165,-15.11499 29.30618,1.74487 44.27491,18.72253 47.56581,53.94953 l 0.63058,6.75 -44.21651,0 -44.2165,0 0.5066,6.3112 c 0.93273,11.61984 6.76009,20.64788 16.21468,25.12062 6.49685,3.0735 18.18233,5.00458 25.25435,4.17341 12.46361,-1.46486 24.08153,-8.81235 26.45374,-16.73006 l 1.16103,-3.87517 8.84171,0 c 4.86294,0 8.84171,0.35546 8.84171,0.7899 0,3.25532 -3.55075,13.15024 -5.99238,16.69902 -3.77779,5.49083 -13.29449,11.87083 -21.85769,14.65339 -9.46531,3.0757 -32.93866,3.64243 -41.64993,1.00557 z m 50.79596,-66.89788 c -2.6917,-17.4545 -14.71822,-27.25 -33.45646,-27.25 -18.03187,0 -32.76364,11.12045 -34.53401,26.06839 l -0.58407,4.93161 34.57642,0 34.57642,0 -0.5783,-3.75 z m -664.08977,59.5 0.29381,-7.25 12.75762,-0.27993 12.75761,-0.27994 -0.25761,-61.72006 -0.25762,-61.72007 -20,0 -20,0 -0.27307,17.75 -0.27308,17.75 -8.47692,0 -8.47693,0 0,-25 0,-25 68.5,0 68.5,0 0,25 0,25 -8.97693,0 -8.97692,0 -0.27308,-17.75 -0.27307,-17.75 -20,0 -20,0 -0.25762,61.72007 -0.25761,61.72006 12.75761,0.27994 12.75762,0.27993 0.29381,7.25 0.29381,7.25 -36.08762,0 -36.08762,0 0.29381,-7.25 z m 111.79381,-0.25 0,-7.5 9,0 9,0 0,-38.5 0,-38.5 -9,0 -9,0 0,-7.5 0,-7.5 18.5,0 18.5,0 0,46 0,46 9.5,0 9.5,0 0,7.5 0,7.5 -28,0 -28,0 0,-7.5 z m 63,0 0,-7.5 9.5,0 9.5,0 0,-38.5 0,-38.5 -9.5,0 -9.5,0 0,-7.52207 0,-7.52206 18.75,0.27206 18.75,0.27207 0.5,9.46557 c 0.44888,8.49772 0.62553,9.18808 1.72774,6.75181 2.4181,-5.34492 9.09977,-11.3407 16.50644,-14.81205 6.91191,-3.23946 7.80162,-3.4034 18.26582,-3.36564 6.05,0.0218 12.8708,0.59045 15.15734,1.26359 6.25676,1.84197 13.45133,7.15072 16.52931,12.19672 5.23077,8.57523 5.81335,13.40281 5.81335,48.17257 l 0,31.75238 9.25,0.28752 9.25,0.28753 0.29381,7.25 0.29381,7.25 -28.04381,0 -28.04381,0 0,-7.5 0,-7.5 9.05265,0 9.05265,0 -0.30265,-31.25 c -0.3007,-31.04902 -0.31873,-31.28211 -2.80265,-36.24335 -3.81881,-7.62746 -8.96799,-10.71976 -18.79763,-11.28879 -14.639,-0.84744 -24.30624,4.18417 -29.89142,15.55789 l -2.81095,5.72425 -0.30632,28.75 -0.30632,28.75 9.05632,0 9.05632,0 0,7.5 0,7.5 -28,0 -28,0 0,-7.5 z m 139,0 0,-7.5 12.00763,0 12.00763,0 -0.25763,-61.75 -0.25763,-61.75 -11.75,-0.28174 -11.75,-0.28173 0,-6.96827 0,-6.96826 67,0 67,0 0,23 0,23 -9,0 -9,0 0,-16.01263 0,-16.01263 -35.75,0.26263 -35.75,0.26263 -0.26633,26.75 -0.26634,26.75 17.51634,0 17.51633,0 0,-11 0,-11 8.5,0 8.5,0 0,29.5 0,29.5 -8.5,0 -8.5,0 0,-11 0,-11 -17.5,0 -17.5,0 0,27.5 0,27.5 36,0 36,0 0,-16 0,-16 9,0 9,0 0,23.5 0,23.5 -67,0 -67,0 0,-7.5 z m -365.8,-41.7 c -1.47085,-1.47085 -1.54261,-4.29132 -0.17424,-6.84814 0.78788,-1.47217 0.46426,-3.02474 -1.39546,-6.69473 -6.18691,-12.20927 -17.65005,-23.6011 -29.96554,-29.77911 l -6.83523,-3.42887 -2.50366,2.97542 c -1.4537,1.72762 -3.47753,2.97543 -4.82587,2.97543 -5.42684,0 -10.07028,-11.05672 -7.60882,-18.1177 1.60089,-4.59229 1.49034,-4.62725 -2.61986,-0.82847 -2.05078,1.89539 -2.95078,2.51074 -2,1.36743 C 35.22209,486.64013 36,485.33289 36,484.87845 c 0,-1.65614 -4.40307,3.13141 -8.26227,8.98373 -3.92965,5.95915 -4.23246,4.47078 -0.56793,-2.79149 6.04914,-11.98802 22.14866,-19.66007 30.1947,-14.38895 l 2.77744,1.81955 -2.66785,2.47248 c -2.04106,1.8916 -2.9836,2.21044 -4.01179,1.35713 -1.1173,-0.92729 -1.14312,-0.57963 -0.15311,2.06168 0.78442,2.09281 2.55589,3.87223 5.19081,5.21408 18.41782,9.37941 30.65316,23.35347 36.12233,41.25552 1.00817,3.3 2.63058,6.58802 3.60535,7.3067 1.92801,1.42149 2.48026,7.63773 0.77232,8.6933 -0.56216,0.34743 -1,-0.4488 -1,-1.81854 0,-3.18088 -2.69636,-5.63631 -3.60089,-3.27914 -0.34351,0.89516 -0.39096,2.52084 -0.10545,3.61262 0.58549,2.23894 -0.30563,2.57309 -2.09366,0.78506 z m -158.45,-0.37073 c -1.405281,-1.4289 -0.755104,-5.31227 1.108789,-6.62257 1.022334,-0.71868 2.639391,-3.99563 3.593461,-7.2821 2.429872,-8.37015 7.720142,-19.15603 12.677771,-25.84763 4.070747,-5.49453 4.271856,-5.62325 6.141647,-3.93111 1.0632,0.96218 2.534654,2.91271 3.269898,4.33452 1.270971,2.45779 1.134955,2.74024 -2.761799,5.73517 -8.093286,6.22027 -18.556974,22.95167 -17.353231,27.74777 0.627171,2.49885 -0.794022,6.43668 -2.323048,6.43668 -0.454379,0 -0.611087,-1.125 -0.348239,-2.5 0.343525,-1.79704 0.04202,-2.5 -1.07225,-2.5 -0.920848,0 -1.67861,1.05386 -1.866577,2.59594 -0.174032,1.42777 -0.653922,2.25277 -1.066422,1.83333 z m 59.13917,-10.82738 c 5.68387,-5.22535 6.42575,-5.60189 11.03704,-5.60189 2.71898,0 6.21039,0.51766 7.75869,1.15035 l 2.8151,1.15034 -4.34842,0.81431 c -2.39164,0.44787 -7.11664,2.13954 -10.5,3.75926 -3.38337,1.61972 -7.66004,3.25647 -9.50372,3.63723 -3.29521,0.68053 -3.24865,0.59714 2.74131,-4.9096 z m -6.60867,-37.66916 c -1.79937,-0.54442 -4.66654,-2.77498 -6.5,-5.05676 -3.26359,-4.06161 -6.991861,-6.55323 -11.774026,-7.86864 -1.449355,-0.39866 3.608977,-1.00138 11.993526,-1.42907 15.53696,-0.79253 19.15474,-1.7017 35.5,-8.92134 11.07564,-4.89208 15.80004,-5.795 8.2499,-1.57672 -6.02883,3.36833 -12.07607,9.31449 -17.43899,17.1475 -4.7843,6.98789 -12.54019,9.97132 -20.03041,7.70503 z M -34.6736,471.3178 c -9.666747,-1.9114 -13.682734,-6.49321 -13.728807,-15.66307 -0.03035,-6.04051 2.108169,-9.00944 8.818412,-12.24268 7.330712,-3.5322 36.649845,-7.1981 45.016175,-5.62857 L 9,438.45281 l 0,6.4868 c 0,7.47867 1.67604,12.23598 5.32094,15.10306 l 2.5633,2.01629 -3.69212,2.07034 c -4.87375,2.73292 -17.5725,5.91169 -28.71593,7.18822 -10.191744,1.1675 -13.24649,1.16754 -19.14979,2.8e-4 z m 7.940701,-3.70562 c 3.981039,-4.41755 2.416059,-13.99427 -2.980561,-18.23925 -9.517692,-7.48661 -15.641891,7.16852 -6.878573,16.46034 3.700041,3.92319 7.335587,4.57916 9.859134,1.77891 z m -10.195811,-5.11679 c -1.38711,-2.59184 -0.363731,-5.13321 2.067084,-5.13321 2.326676,0 3.550153,2.6849 2.19933,4.8264 -1.50459,2.38527 -3.092924,2.49949 -4.266414,0.30681 z m 34.47416,2.41224 c 5.96893,-5.96892 0.05487,-21.54545 -8.18031,-21.54545 -4.10228,0 -6.36514,3.32475 -6.36514,9.35212 0,5.98977 2.73823,11.1969 7.03002,13.36857 3.52822,1.7853 4.74521,1.59499 7.51543,-1.17524 z M -12.5876,459.9945 c -1.00596,-2.6215 0.022,-5.13232 2.1013,-5.13232 1.53831,0 1.9863,0.67353 1.9863,2.9863 0,3.27174 -3.04264,4.86915 -4.0876,2.14602 z m 44.4001,8.68457 c 0.72187,-0.28887 1.58437,-0.25335 1.91667,0.0789 0.33229,0.33229 -0.25834,0.56864 -1.3125,0.52522 -1.16495,-0.048 -1.4019,-0.28494 -0.60417,-0.60416 z m -86.896773,-7.03855 c -0.725799,-1.90899 -0.707229,-3.44053 0.06219,-5.12922 1.379669,-3.02804 1.597216,-2.74245 2.362074,3.10088 0.69101,5.27915 -0.734764,6.47207 -2.424265,2.02834 z M 272,453.36218 l 0,-11 10.5,0 10.5,0 0,11 0,11 -10.5,0 -10.5,0 0,-11 z M 20.5567,450.13967 c -1.9253,-2.74875 -1.96873,-4.74422 -0.15947,-7.3273 1.10149,-1.57261 1.21957,-3.75702 0.55789,-10.32068 -0.46164,-4.57922 -1.12614,-9.63168 -1.47668,-11.22769 -0.47336,-2.15517 -0.26644,-2.90182 0.80417,-2.90182 1.06613,0 1.61757,1.94269 2.11753,7.46 0.76269,8.41651 2.07497,12.94477 4.75991,16.42486 2.09703,2.71807 2.41449,7.1406 0.63995,8.91514 -1.9093,1.9093 -5.54973,1.3954 -7.2433,-1.02251 z m -74.490556,-1.77749 c -0.256042,-3.63141 -2.073858,-14.85653 -2.648329,-16.35357 -0.45838,-1.19452 -0.076,-1.64643 1.393137,-1.64643 1.814485,0 2.061723,0.75347 2.378957,7.25 0.194715,3.9875 0.04532,8.375 -0.331988,9.75 -0.377308,1.375 -0.733608,1.825 -0.791777,1 z M -38,433.89428 c 0,-1.88164 3.815242,-6.86547 6.554208,-8.56172 6.534322,-4.04673 26.707012,-5.13773 30.210842,-1.6339 1.55136,1.55136 1.41798,1.66352 -1.97829,1.66352 -2.84735,0 -4.14845,0.64648 -5.96428,2.96349 -2.14024,2.73095 -3.06791,3.04742 -11.82248,4.03315 -5.225,0.58832 -11.1875,1.33726 -13.25,1.66432 -2.0625,0.32706 -3.75,0.26907 -3.75,-0.12886 z"
         id="path3241" />
      <path
         style="fill:#2e2e2e"
         d="m 622.25,635.70024 -3.25,-0.46478 0,-6.99719 0,-6.99719 6.84763,0.67474 c 12.41708,1.22355 17.78565,-2.78386 24.35764,-18.18196 l 3.4692,-8.12831 -20.69557,-45.87169 -20.69556,-45.87168 -6.14167,-0.29772 -6.14167,-0.29771 0,-6.95229 0,-6.95228 26.5,0 26.5,0 0,7 0,7 -10,0 c -5.5,0 -10,0.41107 -10,0.9135 0,1.89236 29.73461,70.21802 30.56996,70.24517 0.69818,0.0227 27.83933,-62.78113 29.99548,-69.40867 0.51679,-1.58848 -0.35984,-1.75 -9.49805,-1.75 l -10.06739,0 0,-7 0,-7 24.5,0 24.5,0 0,7 0,7 -5.75,0.0287 -5.75,0.0287 -21.89694,51.22129 c -26.49951,61.98761 -29.38781,68.17633 -34.05993,72.97968 -5.97259,6.14036 -10.70395,8.00507 -21.04313,8.29343 -4.95,0.13806 -10.4625,0.0419 -12.25,-0.21376 z M 16,606.42705 C 8.68603,604.19418 3.41355,600.24086 -0.53919,594.02591 l -1.80388,-2.83627 3.80871,2.58466 c 3.79814,2.57749 11.29108,5.16449 12.23227,4.2233 0.27282,-0.27282 -0.89749,-3.33989 -2.6007,-6.81573 -3.77698,-7.70792 -5.50597,-16.48294 -4.69331,-23.81969 0.4201,-3.79269 0.30151,-5.03437 -0.38203,-4 -0.54519,0.825 -1.00271,2.175 -1.01673,3 -0.014,0.825 -1.80239,2.24617 -3.97416,3.15816 -2.3191,0.97386 -4.7895,3.03731 -5.98609,5 l -2.03741,3.34184 -0.004,-4.80718 c -0.009,-11.85757 4.95992,-19.72979 14.60367,-23.13545 7.45801,-2.63377 21.34551,-3.22897 26.79357,-1.14834 8.43065,3.2197 17.06855,15.3562 19.71623,27.70188 1.46743,6.84239 0.62409,16.83847 -1.81755,21.54339 -2.58589,4.98291 -5.71499,7.12344 -12.18615,8.33621 -6.1815,1.15848 -20.41855,1.20239 -24.11351,0.0744 z m 13.18561,-9.71791 c 4.20132,-1.31351 5.00891,-1.29773 7.81368,0.15267 4.42659,2.28908 8.86153,1.59421 11.37096,-1.7816 2.88233,-3.87746 3.45052,-14.73085 1.13599,-21.69924 -2.22535,-6.69989 -2.87358,-6.01907 -0.84804,0.89068 3.18721,10.87261 0.20289,22.16717 -6.05381,22.91146 -3.89277,0.46308 -10.22273,-6.04527 -11.05869,-11.37034 -0.3411,-2.17282 -1.51555,-7.42395 -2.60988,-11.66917 -1.10447,-4.28456 -1.70703,-8.84482 -1.35435,-10.25 0.34944,-1.39228 0.37443,-2.53142 0.05553,-2.53142 -0.3189,0 -0.95847,1.46127 -1.42127,3.24726 l -0.84145,3.24727 -8.43714,0.003 -8.43714,0.003 0.0707,7 c 0.0832,8.2455 2.4093,14.25829 7.84239,20.27206 3.91692,4.33556 3.93521,4.33782 12.77257,1.5749 z m 730.94525,-0.88796 c -19.66361,-4.26667 -33.46594,-17.52337 -38.65926,-37.13098 -2.09465,-7.90846 -2.06742,-25.2311 0.0526,-33.45213 4.72033,-18.30458 17.81657,-31.40063 36.47581,-36.47527 8.96167,-2.43725 26.3988,-2.448 34.5,-0.0213 8.63474,2.58655 14.89995,6.27174 20.08287,11.8127 C 820.9078,509.45425 827,526.68053 827,541.32002 l 0,6.04216 -44.09384,0 -44.09384,0 0.66198,5.25 c 1.76536,14.00068 8.5365,23.39679 20.0257,27.78907 8.84279,3.38057 25.54919,3.41289 33.90685,0.0656 7.38036,-2.95588 14.20034,-9.49387 15.14259,-14.51649 l 0.67314,-3.58818 8.528,0 8.528,0 -0.60431,5.10245 c -1.56726,13.23304 -14.73202,24.4729 -33.26183,28.39843 -8.56059,1.81355 -23.82179,1.79376 -32.28158,-0.0419 z m 48.36104,-67.709 c -1.06827,-6.63868 -5.44168,-15.49872 -9.33974,-18.92126 -12.72017,-11.16846 -37.04471,-10.6421 -50.40771,1.09077 -4.17661,3.66712 -8.28682,11.58235 -9.25898,17.83049 l -0.66127,4.25 35.1758,0 35.1758,0 -0.6839,-4.25 z m -663.4919,60.25 0,-7 12.5,0 12.5,0 0,-62.5 0,-62.5 -20.5,0 -20.5,0 0,18 0,18 -8.5,0 -8.5,0 0,-25 0,-25 68,0 68,0 0,25 0,25 -8.5,0 -8.5,0 0,-18 0,-18 -20.5,0 -20.5,0 0,62.5 0,62.5 12.5,0 12.5,0 0,7 0,7 -35,0 -35,0 0,-7 z m 111,0.0375 0,-6.96248 9.25,-0.28752 9.25,-0.28753 0.26174,-38.75 0.26175,-38.75 -9.51175,0 -9.51174,0 0,-7 0,-7 18.5,0 18.5,0 0,46 0,46 9.5,0 9.5,0 0,7 0,7 -28,0 -28,0 0,-6.96247 z m 63,-0.0375 0,-7 9.5,0 9.5,0 0,-39 0,-39 -9.5,0 -9.5,0 0,-7 0,-7 18.5,0 18.5,0 0,9.5 c 0,5.225 0.3375,9.48496 0.75,9.46658 0.4125,-0.0184 2.1,-2.36973 3.75,-5.22522 3.58635,-6.20651 11.44527,-12.05567 19.47403,-14.49393 7.67678,-2.33136 21.75732,-2.20296 29.51673,0.26916 8.03365,2.55951 15.33353,9.62012 18.5928,17.98341 2.25777,5.79341 2.35099,7.17927 2.70739,40.25 l 0.36912,34.25 8.91996,0 8.91997,0 0,7 0,7 -27.5,0 -27.5,0 0,-7 0,-7 9,0 9,0 0,-30.3185 c 0,-33.18739 -0.58317,-37.64652 -5.63111,-43.05718 -4.35179,-4.66449 -10.39967,-6.78221 -19.36889,-6.78221 -12.57939,0 -21.29363,5.01434 -26.53588,15.26923 -3.73252,7.30159 -4.56705,15.32495 -4.2529,40.88866 l 0.28878,23.5 9.25,0.28753 9.25,0.28752 0,6.96248 0,6.96247 -28,0 -28,0 0,-7 z m 139,0 0,-7 12,0 12,0 0,-62.5 0,-62.5 -12,0 -12,0 0,-7 0,-7 67,0 67,0 0,23 0,23 -8.47461,0 -8.4746,0 -0.2754,-15.75 -0.27539,-15.75 -36.25,-0.26247 -36.25,-0.26248 0,27.51248 0,27.51247 17.5,0 17.5,0 0,-11 0,-11 8.5,0 8.5,0 0,29 0,29 -8.5,0 -8.5,0 0,-11 0,-11 -17.5,0 -17.5,0 0,28.01247 0,28.01248 36.25,-0.26248 36.25,-0.26247 0.27477,-16.25 0.27477,-16.25 8.47523,0 8.47523,0 0,23.5 0,23.5 -67,0 -67,0 0,-7 z M 91.96207,545.2913 c -0.79452,-1.48456 -0.80688,-2.93555 -0.0437,-5.12493 0.85685,-2.45795 0.70307,-3.85919 -0.78791,-7.17912 -5.06958,-11.28836 -17.65994,-23.845 -30.28292,-30.20183 l -6.96598,-3.50801 -2.84201,3.04239 c -3.21406,3.44066 -4.63924,3.71152 -7.81708,1.48568 -3.07695,-2.15518 -2.77748,-3.4433 0.80054,-3.4433 2.96755,0 2.99396,-0.0444 1.43845,-2.41842 -2.08552,-3.1829 -2.11458,-9.93591 -0.0563,-13.07728 1.60153,-2.44426 1.58038,-2.5043 -0.88218,-2.5043 -2.81189,0 -3.38439,-1.45549 -0.94126,-2.39301 4.04397,-1.55182 8.32766,1.04136 9.80478,5.93543 0.35101,1.16298 2.89032,3.15764 5.89735,4.63242 6.9205,3.39413 20.45226,13.70782 24.09945,18.36821 4.09075,5.22718 9.30478,15.56378 11.22347,22.25007 0.9007,3.13878 2.48263,6.51191 3.5154,7.49584 1.9922,1.89797 2.55617,7.17372 0.87776,8.21104 -0.58179,0.35956 -1,-0.63661 -1,-2.38197 0,-3.49915 -1.48085,-4.79377 -3.53414,-3.0897 -0.90323,0.74962 -1.22165,2.09651 -0.84779,3.58609 0.73673,2.93534 -0.16207,3.10614 -1.656,0.3147 z m -158.450081,-0.89135 c -0.654362,-2.06171 0.943098,-6.03777 2.425793,-6.03777 0.477079,0 1.853111,-3.2625 3.057851,-7.25 3.502983,-11.59433 13.84365,-29.75 16.944285,-29.75 0.43687,0 1.920796,1.70224 3.297613,3.78275 l 2.503303,3.78274 -3.976208,2.85816 c -8.311986,5.97476 -18.82006,23.29469 -18.02412,29.70824 0.2734,2.20301 -0.02246,3.92434 -0.752023,4.37523 -0.858679,0.53069 -1.009343,0.13396 -0.526666,-1.38682 0.476204,-1.50038 0.182396,-2.3196 -0.993791,-2.77094 -1.885006,-0.72335 -3.551624,1.26921 -2.768517,3.30996 0.282958,0.73737 0.271648,1.34068 -0.02513,1.34068 -0.29678,0 -0.819855,-0.883 -1.162387,-1.96223 z m 58.883561,-8.59011 c 5.23782,-5.46649 8.63979,-6.78397 15.36795,-5.95157 5.89574,0.72942 6.11868,1.92823 0.55277,2.9724 -2.0382,0.38237 -5.75567,1.73245 -8.26104,3.00019 -2.50538,1.26773 -6.18518,2.75373 -8.17733,3.30222 l -3.62211,0.99726 4.13976,-4.3205 z m -6.11505,-38.51493 c -1.8224,-0.55139 -4.64309,-2.7629 -6.5,-5.09621 -1.87523,-2.35631 -5.422348,-5.12767 -8.2805,-6.46954 l -5,-2.34744 10,-0.0173 c 13.92702,-0.0241 21.05798,-1.40308 31.75752,-6.14114 9.54426,-4.22647 19.86188,-8.075 20.34725,-7.58963 0.15214,0.15213 -2.15214,1.54823 -5.12063,3.10243 -5.64572,2.95591 -11.77908,8.9752 -17.17323,16.85383 -4.7843,6.98789 -12.54019,9.97132 -20.03041,7.70503 z m 6.24366,-4.52903 c -2.18671,-0.80046 -4.37992,-1.85946 -4.87379,-2.35333 -0.5306,-0.5306 -1.41913,-0.41775 -2.17193,0.27584 -1.83815,1.69359 1.93805,3.61241 7.02156,3.56789 l 4,-0.035 -3.97584,-1.45538 z m -31.061722,-22.39997 c -5.392948,-1.6881 -8.732643,-6.21691 -9.258218,-12.55465 -0.291466,-3.51469 0.01698,-6.49388 0.829524,-8.01213 3.050025,-5.69903 16.560005,-9.13526 39.716256,-10.10174 l 15.25,-0.6365 0.006,5.90064 c 0.007,7.59223 1.55034,13.04748 4.53517,16.03231 l 2.3762,2.3762 -3.70847,1.56077 c -8.35087,3.51459 -19.76281,5.56831 -33.20848,5.97629 -7.425,0.2253 -14.866903,-0.0182 -16.537562,-0.54119 z m 12.980858,-3.22624 c 3.643694,-5.2021 0.735914,-15.57157 -5.372243,-19.158 -10.105938,-5.93374 -14.708097,12.91791 -4.84081,19.82923 3.316709,2.32311 8.347315,1.99249 10.213053,-0.67123 z M -37,460.36218 c 0,-2.27682 0.456332,-3 1.893011,-3 1.041156,0 2.152033,0.675 2.468615,1.5 0.872929,2.27482 -0.347764,4.5 -2.468615,4.5 -1.436679,0 -1.893011,-0.72318 -1.893011,-3 z m 34.51232,5.34482 c 5.47464,-5.47464 3.42564,-16.97295 -3.81087,-21.3853 -4.26216,-2.59879 -5.33363,-2.48118 -8.77837,0.96356 -3.51863,3.51863 -3.85574,8.42641 -1.00933,14.69442 3.09344,6.812 9.72209,9.6038 13.59857,5.72732 z m -9.46222,-5.78445 c -1.74049,-2.09716 -0.88345,-5.06037 1.4636,-5.06037 2.42147,0 3.21747,3.6483 1.16724,5.34984 -1.10015,0.91304 -1.68638,0.84853 -2.63084,-0.28947 z m -42.443111,2.85784 c -0.696309,-1.81455 -0.832773,-7.97733 -0.161786,-7.30634 0.915531,0.91553 2.310795,8.88813 1.555488,8.88813 -0.432692,0 -1.059858,-0.7118 -1.393702,-1.58179 z M 272,452.86218 l 0,-10.5 10.5,0 10.5,0 0,10.5 0,10.5 -10.5,0 -10.5,0 0,-10.5 z m -250.72232,-1.75 c -2.62928,-3.39802 -2.39124,-8.11454 0.35632,-7.0602 1.56401,0.60016 1.39016,-3.20691 -0.71344,-15.62346 -1.18937,-7.02031 -1.16533,-10.06634 0.07944,-10.06634 0.55,0 1,1.87564 1,4.16809 0,6.95153 2.07799,16.61582 4.06542,18.90734 2.83483,3.26859 3.27385,5.75783 1.49446,8.47353 -1.73204,2.64342 -4.72359,3.21535 -6.2822,1.20104 z m -75.339503,-5 c -0.034,-0.6875 -0.38892,-4.5125 -0.788704,-8.5 -0.564008,-5.62549 -0.438119,-7.25 0.561823,-7.25 0.95053,0 1.288704,2.23052 1.288704,8.5 0,4.675 -0.225,8.5 -0.5,8.5 -0.275,0 -0.52782,-0.5625 -0.561823,-1.25 z M -37,432.66964 c 0,-2.83884 5.927059,-7.99548 10.5,-9.13516 7.46839,-1.86131 17.11239,-2.35481 21.64093,-1.10741 l 4.35907,1.20073 -3.38508,1.16771 c -1.86179,0.64225 -4.34035,2.36575 -5.50791,3.83001 -1.88797,2.36774 -3.17299,2.77924 -11.61492,3.71951 -5.220649,0.58147 -10.95459,1.32329 -12.74209,1.64848 -2.741141,0.49868 -3.25,0.2914 -3.25,-1.32387 z"
         id="path3239" />
    </g>
  </g>
</svg>
